if (_typeface_js && _typeface_js.loadFace) _typeface_js.loadFace({"glyphs":{"0":{"ha":540,"x_min":0,"x_max":0,"o":"m 47 738 b 269 982 47 886 121 982 b 493 738 419 982 493 886 l 493 236 b 269 -10 493 88 419 -10 b 47 236 121 -10 47 88 m 154 229 b 269 89 154 142 192 89 b 385 229 349 89 385 142 l 385 743 b 269 885 385 832 349 885 b 154 743 192 885 154 832 "},"1":{"ha":469,"x_min":0,"x_max":0,"o":"m 254 796 b 119 754 218 774 171 757 l 119 843 b 286 972 225 847 261 904 l 361 972 l 361 0 l 254 0 "},"2":{"ha":538,"x_min":0,"x_max":0,"o":"m 274 982 b 493 736 425 982 493 885 b 163 114 493 443 164 338 l 163 99 l 482 99 l 482 0 l 56 0 l 56 83 b 385 732 56 397 385 458 b 271 885 385 832 351 885 b 157 742 192 885 157 828 l 157 656 l 56 656 l 56 735 b 274 982 56 883 124 982 "},"3":{"ha":538,"x_min":0,"x_max":0,"o":"m 268 982 b 488 738 418 982 488 886 l 488 713 b 369 513 488 613 447 542 b 488 311 451 482 488 408 l 488 236 b 268 -10 488 88 418 -10 b 50 236 119 -10 50 88 l 50 303 l 151 303 l 151 229 b 265 89 151 142 188 89 b 379 239 344 89 379 140 l 379 314 b 257 458 379 410 339 456 l 199 458 l 199 556 l 263 556 b 379 689 335 558 379 604 l 379 733 b 265 885 379 833 344 885 b 151 743 188 885 151 831 l 151 693 l 50 693 l 50 738 b 268 982 50 886 119 982 "},"4":{"ha":556,"x_min":0,"x_max":0,"o":"m 450 196 l 450 0 l 344 0 l 344 196 l 31 196 l 31 294 l 332 972 l 450 972 l 450 294 l 528 294 l 528 196 m 131 294 l 344 294 l 344 769 "},"5":{"ha":538,"x_min":0,"x_max":0,"o":"m 164 576 b 308 657 194 629 243 657 b 489 426 433 657 489 565 l 489 236 b 269 -10 489 88 418 -10 b 51 236 121 -10 51 88 l 51 301 l 153 301 l 153 229 b 267 89 153 142 189 89 b 381 229 344 89 381 142 l 381 418 b 267 558 381 506 344 558 b 157 454 207 558 167 525 l 157 432 l 56 432 l 82 972 l 465 972 l 465 875 l 179 875 "},"6":{"ha":540,"x_min":0,"x_max":0,"o":"m 272 982 b 492 739 422 982 492 888 l 492 721 l 390 721 l 390 746 b 275 885 390 833 354 885 b 157 728 193 885 157 832 l 157 510 b 314 614 183 576 236 614 b 494 383 439 614 494 524 l 494 236 b 272 -10 494 88 421 -10 b 49 236 122 -10 49 88 l 49 732 b 272 982 49 886 118 982 m 272 515 b 157 375 193 515 157 463 l 157 229 b 272 89 157 142 193 89 b 388 229 350 89 388 142 l 388 375 b 272 515 388 463 350 515 "},"7":{"ha":538,"x_min":0,"x_max":0,"o":"m 379 875 l 49 875 l 49 972 l 489 972 l 489 878 l 239 0 l 131 0 "},"8":{"ha":544,"x_min":0,"x_max":0,"o":"m 272 982 b 501 742 422 982 501 892 l 501 711 b 390 511 501 613 467 540 b 501 306 471 479 501 403 l 501 233 b 272 -10 501 83 424 -10 b 43 233 121 -10 43 83 l 43 306 b 156 511 43 404 74 478 b 43 711 76 542 43 613 l 43 742 b 272 982 43 892 122 982 m 272 885 b 150 739 196 885 150 839 l 150 692 b 272 556 150 597 196 556 b 394 692 349 556 394 597 l 394 739 b 272 885 394 839 349 885 m 272 458 b 150 318 192 458 150 413 l 150 236 b 272 89 150 136 194 89 b 394 236 350 89 393 136 l 394 318 b 272 458 394 413 353 458 "},"9":{"ha":540,"x_min":0,"x_max":0,"o":"m 268 982 b 492 738 418 982 492 886 l 492 242 b 267 -10 492 88 422 -10 b 47 235 118 -10 47 86 l 47 253 l 149 253 l 149 228 b 264 89 149 140 186 89 b 383 244 347 89 383 142 l 383 463 b 226 360 357 396 304 360 b 46 589 101 360 46 449 l 46 738 b 268 982 46 886 118 982 m 268 883 b 153 743 190 883 153 832 l 153 597 b 268 457 153 510 190 457 b 383 597 347 457 383 510 l 383 743 b 268 883 383 832 347 883 "}," ":{"ha":215,"x_min":0,"x_max":0,"o":""},"Â":{"ha":586,"x_min":0,"x_max":0,"o":"m 218 1024 l 124 1024 l 243 1163 l 340 1163 l 460 1024 l 365 1024 l 292 1106 m 165 196 l 128 0 l 28 0 l 214 972 l 371 972 l 557 0 l 449 0 l 411 196 m 179 289 l 396 289 l 286 850 "},"Ä":{"ha":586,"x_min":0,"x_max":0,"o":"m 253 1149 l 253 1024 l 158 1024 l 158 1149 m 425 1149 l 425 1024 l 331 1024 l 331 1149 m 165 196 l 128 0 l 28 0 l 214 972 l 371 972 l 557 0 l 449 0 l 411 196 m 179 289 l 396 289 l 286 850 "},"À":{"ha":586,"x_min":0,"x_max":0,"o":"m 264 1167 l 361 1024 l 282 1024 l 153 1167 m 165 196 l 128 0 l 28 0 l 214 972 l 371 972 l 557 0 l 449 0 l 411 196 m 179 289 l 396 289 l 286 850 "},"Ā":{"ha":586,"x_min":0,"x_max":0,"o":"m 439 1119 l 439 1042 l 144 1042 l 144 1119 m 165 196 l 128 0 l 28 0 l 214 972 l 371 972 l 557 0 l 449 0 l 411 196 m 179 289 l 396 289 l 286 850 "},"Ą":{"ha":586,"x_min":0,"x_max":0,"o":"m 518 0 b 468 -96 485 -28 467 -69 b 519 -137 469 -125 493 -137 b 575 -125 546 -137 560 -132 l 575 -182 b 489 -199 547 -194 524 -199 b 385 -121 428 -199 386 -174 b 451 -10 383 -82 408 -40 l 411 196 l 165 196 l 128 0 l 28 0 l 214 972 l 371 972 l 557 0 m 179 289 l 396 289 l 286 850 "},"Å":{"ha":586,"x_min":0,"x_max":0,"o":"m 292 1226 b 393 1125 349 1226 393 1182 b 292 1024 393 1067 349 1024 b 189 1125 233 1024 189 1067 b 292 1226 189 1182 233 1226 m 292 1175 b 240 1125 263 1175 240 1153 b 292 1075 240 1096 263 1075 b 342 1125 319 1075 342 1096 b 292 1175 342 1153 319 1175 m 165 196 l 128 0 l 28 0 l 214 972 l 371 972 l 557 0 l 449 0 l 411 196 m 179 289 l 396 289 l 286 850 "},"Ã":{"ha":586,"x_min":0,"x_max":0,"o":"m 224 1147 b 351 1106 281 1147 310 1106 b 407 1147 375 1107 393 1118 l 461 1110 b 363 1031 439 1056 404 1031 b 235 1071 307 1029 278 1071 b 176 1029 210 1071 192 1061 l 122 1067 b 224 1147 144 1124 181 1146 m 165 196 l 128 0 l 28 0 l 214 972 l 371 972 l 557 0 l 449 0 l 411 196 m 179 289 l 396 289 l 286 850 "},"Æ":{"ha":813,"x_min":0,"x_max":0,"o":"m 717 542 l 717 444 l 493 444 l 493 99 l 768 99 l 768 0 l 386 0 l 386 197 l 188 197 l 125 0 l 22 0 l 325 972 l 768 972 l 768 874 l 493 874 l 493 542 m 213 292 l 386 292 l 386 836 "},"Ǽ":{"ha":813,"x_min":0,"x_max":0,"o":"m 569 1172 l 440 1029 l 365 1029 l 463 1172 m 717 542 l 717 444 l 493 444 l 493 99 l 768 99 l 768 0 l 386 0 l 386 197 l 188 197 l 125 0 l 22 0 l 325 972 l 768 972 l 768 874 l 493 874 l 493 542 m 213 292 l 386 292 l 386 836 "},"B":{"ha":544,"x_min":0,"x_max":0,"o":"m 274 972 b 485 757 425 972 485 900 l 485 711 b 371 518 485 608 456 544 b 501 310 465 492 501 417 l 501 228 b 279 0 501 82 431 0 l 56 0 l 56 972 m 247 560 b 378 689 333 560 378 588 l 378 746 b 271 874 378 832 349 874 l 164 874 l 164 560 m 279 99 b 394 231 358 99 394 140 l 394 317 b 258 461 394 425 351 461 l 164 461 l 164 99 "},"C":{"ha":528,"x_min":0,"x_max":0,"o":"m 265 982 b 485 738 415 982 485 885 l 485 650 l 382 650 l 382 743 b 268 883 382 831 347 883 b 154 743 190 883 154 831 l 154 229 b 268 89 154 142 190 89 b 382 229 347 89 382 142 l 382 356 l 485 356 l 485 235 b 265 -10 485 88 415 -10 b 47 235 117 -10 47 88 l 47 738 b 265 982 47 885 117 982 "},"Ć":{"ha":528,"x_min":0,"x_max":0,"o":"m 407 1174 l 278 1031 l 201 1031 l 299 1174 m 265 982 b 485 738 415 982 485 885 l 485 650 l 382 650 l 382 743 b 268 883 382 831 347 883 b 154 743 190 883 154 831 l 154 229 b 268 89 154 142 190 89 b 382 229 347 89 382 142 l 382 356 l 485 356 l 485 235 b 265 -10 485 88 415 -10 b 47 235 117 -10 47 88 l 47 738 b 265 982 47 885 117 982 "},"Č":{"ha":528,"x_min":0,"x_max":0,"o":"m 196 1168 l 268 1085 l 342 1168 l 438 1168 l 317 1029 l 221 1029 l 101 1168 m 265 982 b 485 738 415 982 485 885 l 485 650 l 382 650 l 382 743 b 268 883 382 831 347 883 b 154 743 190 883 154 831 l 154 229 b 268 89 154 142 190 89 b 382 229 347 89 382 142 l 382 356 l 485 356 l 485 235 b 265 -10 485 88 415 -10 b 47 235 117 -10 47 88 l 47 738 b 265 982 47 885 117 982 "},"Ç":{"ha":528,"x_min":0,"x_max":0,"o":"m 265 982 b 485 738 415 982 485 885 l 485 650 l 382 650 l 382 743 b 268 883 382 831 347 883 b 154 743 190 883 154 831 l 154 229 b 268 89 154 142 190 89 b 382 229 347 89 382 142 l 382 356 l 485 356 l 485 235 b 289 -8 485 96 422 0 l 289 -51 b 392 -122 354 -51 392 -78 b 260 -211 392 -178 343 -211 b 132 -125 179 -211 132 -179 l 132 -114 l 203 -114 l 203 -124 b 260 -164 203 -146 224 -161 b 319 -119 297 -164 319 -147 b 251 -78 319 -93 294 -78 l 239 -78 l 239 -8 b 47 235 108 1 47 97 l 47 738 b 265 982 47 885 117 982 "},"Ĉ":{"ha":528,"x_min":0,"x_max":0,"o":"m 194 1028 l 100 1028 l 219 1168 l 315 1168 l 436 1028 l 342 1028 l 268 1110 m 265 982 b 485 738 415 982 485 885 l 485 650 l 382 650 l 382 743 b 268 883 382 831 347 883 b 154 743 190 883 154 831 l 154 229 b 268 89 154 142 190 89 b 382 229 347 89 382 142 l 382 356 l 485 356 l 485 235 b 265 -10 485 88 415 -10 b 47 235 117 -10 47 88 l 47 738 b 265 982 47 885 117 982 "},"Ċ":{"ha":528,"x_min":0,"x_max":0,"o":"m 313 1150 l 313 1025 l 218 1025 l 218 1150 m 265 982 b 485 738 415 982 485 885 l 485 650 l 382 650 l 382 743 b 268 883 382 831 347 883 b 154 743 190 883 154 831 l 154 229 b 268 89 154 142 190 89 b 382 229 347 89 382 142 l 382 356 l 485 356 l 485 235 b 265 -10 485 88 415 -10 b 47 235 117 -10 47 88 l 47 738 b 265 982 47 885 117 982 "},"D":{"ha":550,"x_min":0,"x_max":0,"o":"m 283 972 b 504 731 435 972 504 881 l 504 240 b 283 0 504 92 435 0 l 56 0 l 56 972 m 282 99 b 397 236 360 99 397 147 l 397 736 b 281 874 397 825 360 874 l 164 874 l 164 99 "},"Ð":{"ha":550,"x_min":0,"x_max":0,"o":"m 283 972 b 504 731 435 972 504 881 l 504 240 b 283 0 504 92 435 0 l 56 0 l 56 442 l -1 442 l -1 531 l 56 531 l 56 972 m 272 442 l 164 442 l 164 99 l 282 99 b 397 236 360 99 397 147 l 397 736 b 281 874 397 825 360 874 l 164 874 l 164 531 l 272 531 "},"Ď":{"ha":550,"x_min":0,"x_max":0,"o":"m 188 1165 l 261 1082 l 335 1165 l 431 1165 l 310 1026 l 214 1026 l 93 1165 m 283 972 b 504 731 435 972 504 881 l 504 240 b 283 0 504 92 435 0 l 56 0 l 56 972 m 282 99 b 397 236 360 99 397 147 l 397 736 b 281 874 397 825 360 874 l 164 874 l 164 99 "},"Đ":{"ha":550,"x_min":0,"x_max":0,"o":"m 283 972 b 504 731 435 972 504 881 l 504 240 b 283 0 504 92 435 0 l 56 0 l 56 442 l 1 442 l 1 529 l 56 529 l 56 972 m 274 442 l 164 442 l 164 99 l 282 99 b 397 236 360 99 397 147 l 397 736 b 281 874 397 825 360 874 l 164 874 l 164 529 l 274 529 "},"E":{"ha":500,"x_min":0,"x_max":0,"o":"m 401 542 l 401 444 l 164 444 l 164 99 l 456 99 l 456 0 l 56 0 l 56 972 l 456 972 l 456 874 l 164 874 l 164 542 "},"É":{"ha":500,"x_min":0,"x_max":0,"o":"m 393 1169 l 264 1026 l 189 1026 l 286 1169 m 401 542 l 401 444 l 164 444 l 164 99 l 456 99 l 456 0 l 56 0 l 56 972 l 456 972 l 456 874 l 164 874 l 164 542 "},"Ĕ":{"ha":500,"x_min":0,"x_max":0,"o":"m 399 1167 b 251 1026 397 1079 343 1026 b 108 1167 163 1026 110 1079 l 174 1167 b 251 1094 176 1113 208 1094 b 333 1167 297 1094 329 1113 m 401 542 l 401 444 l 164 444 l 164 99 l 456 99 l 456 0 l 56 0 l 56 972 l 456 972 l 456 874 l 164 874 l 164 542 "},"Ě":{"ha":500,"x_min":0,"x_max":0,"o":"m 182 1165 l 254 1082 l 329 1165 l 424 1165 l 303 1026 l 207 1026 l 88 1165 m 401 542 l 401 444 l 164 444 l 164 99 l 456 99 l 456 0 l 56 0 l 56 972 l 456 972 l 456 874 l 164 874 l 164 542 "},"Ê":{"ha":500,"x_min":0,"x_max":0,"o":"m 181 1026 l 86 1026 l 206 1167 l 301 1167 l 422 1026 l 328 1026 l 253 1110 m 401 542 l 401 444 l 164 444 l 164 99 l 456 99 l 456 0 l 56 0 l 56 972 l 456 972 l 456 874 l 164 874 l 164 542 "},"Ë":{"ha":500,"x_min":0,"x_max":0,"o":"m 215 1151 l 215 1026 l 121 1026 l 121 1151 m 388 1151 l 388 1026 l 293 1026 l 293 1151 m 401 542 l 401 444 l 164 444 l 164 99 l 456 99 l 456 0 l 56 0 l 56 972 l 456 972 l 456 874 l 164 874 l 164 542 "},"Ė":{"ha":500,"x_min":0,"x_max":0,"o":"m 303 1153 l 303 1028 l 208 1028 l 208 1153 m 401 542 l 401 444 l 164 444 l 164 99 l 456 99 l 456 0 l 56 0 l 56 972 l 456 972 l 456 874 l 164 874 l 164 542 "},"È":{"ha":500,"x_min":0,"x_max":0,"o":"m 232 1174 l 328 1031 l 249 1031 l 119 1174 m 401 542 l 401 444 l 164 444 l 164 99 l 456 99 l 456 0 l 56 0 l 56 972 l 456 972 l 456 874 l 164 874 l 164 542 "},"Ē":{"ha":500,"x_min":0,"x_max":0,"o":"m 397 1121 l 397 1044 l 107 1044 l 107 1121 m 401 542 l 401 444 l 164 444 l 164 99 l 456 99 l 456 0 l 56 0 l 56 972 l 456 972 l 456 874 l 164 874 l 164 542 "},"Ę":{"ha":500,"x_min":0,"x_max":0,"o":"m 401 542 l 401 444 l 164 444 l 164 99 l 456 99 l 456 0 l 410 0 b 358 -96 375 -28 358 -69 b 411 -137 360 -125 383 -137 b 465 -125 438 -137 450 -132 l 465 -182 b 381 -199 438 -194 414 -199 b 275 -121 318 -199 276 -174 b 360 0 275 -76 308 -32 l 56 0 l 56 972 l 456 972 l 456 874 l 164 874 l 164 542 "},"F":{"ha":472,"x_min":0,"x_max":0,"o":"m 388 519 l 388 421 l 164 421 l 164 0 l 56 0 l 56 972 l 442 972 l 442 874 l 164 874 l 164 519 "},"G":{"ha":532,"x_min":0,"x_max":0,"o":"m 265 982 b 485 738 415 982 485 885 l 485 654 l 382 654 l 382 743 b 268 883 382 831 347 883 b 154 743 190 883 154 831 l 154 229 b 268 89 154 142 190 89 b 382 229 347 89 382 142 l 382 424 l 282 424 l 282 521 l 485 521 l 485 235 b 265 -10 485 88 415 -10 b 47 235 117 -10 47 88 l 47 738 b 265 982 47 885 117 982 "},"Ğ":{"ha":532,"x_min":0,"x_max":0,"o":"m 411 1168 b 265 1028 410 1081 356 1028 b 121 1168 175 1028 122 1081 l 186 1168 b 265 1096 190 1114 221 1096 b 346 1168 310 1096 342 1114 m 265 982 b 485 738 415 982 485 885 l 485 654 l 382 654 l 382 743 b 268 883 382 831 347 883 b 154 743 190 883 154 831 l 154 229 b 268 89 154 142 190 89 b 382 229 347 89 382 142 l 382 424 l 282 424 l 282 521 l 485 521 l 485 235 b 265 -10 485 88 415 -10 b 47 235 117 -10 47 88 l 47 738 b 265 982 47 885 117 982 "},"Ĝ":{"ha":532,"x_min":0,"x_max":0,"o":"m 193 1031 l 99 1031 l 218 1169 l 314 1169 l 435 1031 l 340 1031 l 265 1113 m 265 982 b 485 738 415 982 485 885 l 485 654 l 382 654 l 382 743 b 268 883 382 831 347 883 b 154 743 190 883 154 831 l 154 229 b 268 89 154 142 190 89 b 382 229 347 89 382 142 l 382 424 l 282 424 l 282 521 l 485 521 l 485 235 b 265 -10 485 88 415 -10 b 47 235 117 -10 47 88 l 47 738 b 265 982 47 885 117 982 "},"Ġ":{"ha":532,"x_min":0,"x_max":0,"o":"m 317 1153 l 317 1028 l 222 1028 l 222 1153 m 265 982 b 485 738 415 982 485 885 l 485 654 l 382 654 l 382 743 b 268 883 382 831 347 883 b 154 743 190 883 154 831 l 154 229 b 268 89 154 142 190 89 b 382 229 347 89 382 142 l 382 424 l 282 424 l 282 521 l 485 521 l 485 235 b 265 -10 485 88 415 -10 b 47 235 117 -10 47 88 l 47 738 b 265 982 47 885 117 982 "},"H":{"ha":567,"x_min":0,"x_max":0,"o":"m 164 438 l 164 0 l 56 0 l 56 972 l 164 972 l 164 535 l 403 535 l 403 972 l 511 972 l 511 0 l 403 0 l 403 438 "},"Ħ":{"ha":576,"x_min":0,"x_max":0,"o":"m 517 714 l 517 0 l 407 0 l 407 438 l 168 438 l 168 0 l 60 0 l 60 714 l 10 714 l 10 794 l 60 794 l 60 972 l 168 972 l 168 794 l 407 794 l 407 972 l 517 972 l 517 794 l 567 794 l 567 714 m 407 714 l 168 714 l 168 535 l 407 535 "},"Ĥ":{"ha":567,"x_min":0,"x_max":0,"o":"m 210 1029 l 115 1029 l 236 1169 l 332 1169 l 451 1029 l 357 1029 l 283 1111 m 164 438 l 164 0 l 56 0 l 56 972 l 164 972 l 164 535 l 403 535 l 403 972 l 511 972 l 511 0 l 403 0 l 403 438 "},"I":{"ha":219,"x_min":0,"x_max":0,"o":"m 164 972 l 164 0 l 56 0 l 56 972 "},"Ĳ":{"ha":572,"x_min":0,"x_max":0,"o":"m 164 972 l 164 0 l 56 0 l 56 972 m 522 240 b 313 -1 522 57 431 1 b 246 0 288 -1 269 -1 l 246 99 b 299 97 264 97 282 97 b 414 233 372 101 414 135 l 414 972 l 522 972 "},"Í":{"ha":219,"x_min":0,"x_max":0,"o":"m 139 1169 l 247 1169 l 118 1026 l 43 1026 m 56 972 l 164 972 l 164 0 l 56 0 "},"Ĭ":{"ha":219,"x_min":0,"x_max":0,"o":"m 254 1164 b 108 1022 254 1076 199 1022 b -35 1164 18 1022 -33 1076 l 31 1164 b 108 1090 33 1108 65 1090 b 189 1164 153 1090 185 1108 m 56 972 l 164 972 l 164 0 l 56 0 "},"Î":{"ha":219,"x_min":0,"x_max":0,"o":"m 157 1165 l 278 1026 l 183 1026 l 110 1108 l 36 1026 l -58 1026 l 61 1165 m 56 972 l 164 972 l 164 0 l 56 0 "},"Ï":{"ha":219,"x_min":0,"x_max":0,"o":"m 71 1151 l 71 1026 l -24 1026 l -24 1151 m 243 1151 l 243 1026 l 149 1026 l 149 1151 m 164 972 l 164 0 l 56 0 l 56 972 "},"İ":{"ha":219,"x_min":0,"x_max":0,"o":"m 157 1151 l 157 1026 l 63 1026 l 63 1151 m 164 972 l 164 0 l 56 0 l 56 972 "},"Ì":{"ha":219,"x_min":0,"x_max":0,"o":"m -35 1169 l 78 1169 l 175 1026 l 94 1026 m 56 972 l 164 972 l 164 0 l 56 0 "},"Ī":{"ha":219,"x_min":0,"x_max":0,"o":"m 247 1119 l 247 1042 l -29 1042 l -29 1119 m 164 972 l 164 0 l 56 0 l 56 972 "},"Į":{"ha":219,"x_min":0,"x_max":0,"o":"m 144 0 b 94 -96 110 -28 93 -69 b 146 -137 94 -125 118 -137 b 201 -125 172 -137 185 -132 l 201 -182 b 115 -199 174 -194 149 -199 b 11 -121 54 -199 11 -174 b 96 0 10 -78 40 -33 l 56 0 l 56 972 l 164 972 l 164 0 "},"Ĩ":{"ha":219,"x_min":0,"x_max":0,"o":"m 279 1114 b 181 1033 258 1058 224 1033 b 53 1074 126 1033 96 1075 b -6 1033 28 1074 10 1064 l -60 1069 b 43 1150 -36 1126 0 1150 b 171 1110 99 1150 129 1108 b 226 1150 194 1110 211 1121 m 164 972 l 164 0 l 56 0 l 56 972 "},"J":{"ha":354,"x_min":0,"x_max":0,"o":"m 28 99 b 82 97 46 97 65 97 b 196 233 153 101 196 135 l 196 972 l 303 972 l 303 240 b 96 -1 303 58 213 1 b 28 0 71 -1 51 -3 "},"Ĵ":{"ha":354,"x_min":0,"x_max":0,"o":"m 158 1026 l 64 1026 l 183 1167 l 279 1167 l 400 1026 l 306 1026 l 232 1110 m 303 240 b 96 -1 303 58 213 1 b 28 0 71 -1 51 -3 l 28 99 b 82 97 46 97 65 97 b 196 233 153 101 196 135 l 196 972 l 303 972 "},"K":{"ha":568,"x_min":0,"x_max":0,"o":"m 221 422 l 164 326 l 164 0 l 56 0 l 56 972 l 164 972 l 164 503 l 422 972 l 532 972 l 286 529 l 540 0 l 429 0 "},"L":{"ha":468,"x_min":0,"x_max":0,"o":"m 56 0 l 56 972 l 164 972 l 164 99 l 442 99 l 442 0 "},"Ĺ":{"ha":468,"x_min":0,"x_max":0,"o":"m 286 1169 l 157 1026 l 82 1026 l 179 1169 m 56 0 l 56 972 l 164 972 l 164 99 l 442 99 l 442 0 "},"Ľ":{"ha":468,"x_min":0,"x_max":0,"o":"m 56 0 l 56 972 l 164 972 l 164 99 l 442 99 l 442 0 m 336 838 l 296 838 l 296 972 l 400 972 l 400 849 l 347 715 l 301 715 "},"Ŀ":{"ha":468,"x_min":0,"x_max":0,"o":"m 56 0 l 56 972 l 164 972 l 164 99 l 442 99 l 442 0 m 378 556 l 378 421 l 274 421 l 274 556 "},"Ł":{"ha":483,"x_min":0,"x_max":0,"o":"m 178 404 l 178 99 l 457 99 l 457 0 l 71 0 l 71 289 l 0 219 l 0 319 l 71 389 l 71 972 l 178 972 l 178 504 l 329 661 l 329 561 "},"M":{"ha":726,"x_min":0,"x_max":0,"o":"m 414 1 l 310 1 l 149 775 l 149 0 l 54 0 l 54 972 l 206 972 l 365 196 l 519 972 l 671 972 l 671 0 l 568 0 l 568 782 "},"N":{"ha":568,"x_min":0,"x_max":0,"o":"m 151 0 l 54 0 l 54 972 l 192 972 l 417 269 l 417 972 l 513 972 l 513 0 l 400 0 l 151 786 "},"Ń":{"ha":568,"x_min":0,"x_max":0,"o":"m 425 1169 l 296 1028 l 221 1028 l 318 1169 m 151 0 l 54 0 l 54 972 l 192 972 l 417 269 l 417 972 l 513 972 l 513 0 l 400 0 l 151 788 "},"Ň":{"ha":568,"x_min":0,"x_max":0,"o":"m 211 1169 l 285 1086 l 358 1169 l 453 1169 l 333 1029 l 238 1029 l 117 1169 m 151 0 l 54 0 l 54 972 l 192 972 l 417 269 l 417 972 l 513 972 l 513 0 l 400 0 l 151 786 "},"Ñ":{"ha":568,"x_min":0,"x_max":0,"o":"m 454 1117 b 356 1036 432 1061 397 1036 b 228 1076 300 1035 271 1078 b 169 1036 203 1076 185 1067 l 115 1072 b 218 1153 138 1129 174 1153 b 344 1113 274 1153 303 1111 b 400 1153 368 1113 386 1124 m 151 0 l 54 0 l 54 972 l 192 972 l 417 269 l 417 972 l 513 972 l 513 0 l 400 0 l 151 786 "},"O":{"ha":540,"x_min":0,"x_max":0,"o":"m 47 738 b 269 982 47 886 121 982 b 493 738 419 982 493 886 l 493 235 b 269 -10 493 88 419 -10 b 47 235 121 -10 47 88 m 154 229 b 269 89 154 140 192 89 b 385 229 349 89 385 140 l 385 743 b 269 883 385 831 349 883 b 154 743 192 883 154 831 "},"Ó":{"ha":540,"x_min":0,"x_max":0,"o":"m 407 1174 l 278 1031 l 203 1031 l 300 1174 m 269 982 b 493 738 419 982 493 886 l 493 235 b 269 -10 493 88 419 -10 b 47 235 121 -10 47 88 l 47 738 b 269 982 47 886 121 982 m 269 883 b 154 743 192 883 154 831 l 154 229 b 269 89 154 140 192 89 b 385 229 349 89 385 140 l 385 743 b 269 883 385 831 349 883 "},"Ŏ":{"ha":540,"x_min":0,"x_max":0,"o":"m 415 1168 b 268 1028 414 1081 360 1028 b 125 1168 179 1028 126 1081 l 190 1168 b 268 1096 193 1114 225 1096 b 350 1168 314 1096 346 1114 m 269 982 b 493 738 419 982 493 886 l 493 235 b 269 -10 493 88 419 -10 b 47 235 121 -10 47 88 l 47 738 b 269 982 47 886 121 982 m 269 883 b 154 743 192 883 154 831 l 154 229 b 269 89 154 140 192 89 b 385 229 349 89 385 140 l 385 743 b 269 883 385 831 349 883 "},"Ô":{"ha":540,"x_min":0,"x_max":0,"o":"m 196 1029 l 101 1029 l 221 1169 l 317 1169 l 438 1029 l 343 1029 l 268 1111 m 269 982 b 493 738 419 982 493 886 l 493 235 b 269 -10 493 88 419 -10 b 47 235 121 -10 47 88 l 47 738 b 269 982 47 886 121 982 m 269 883 b 154 743 192 883 154 831 l 154 229 b 269 89 154 140 192 89 b 385 229 349 89 385 140 l 385 743 b 269 883 385 831 349 883 "},"Ö":{"ha":540,"x_min":0,"x_max":0,"o":"m 231 1154 l 231 1029 l 136 1029 l 136 1154 m 403 1154 l 403 1029 l 308 1029 l 308 1154 m 269 982 b 493 738 419 982 493 886 l 493 235 b 269 -10 493 88 419 -10 b 47 235 121 -10 47 88 l 47 738 b 269 982 47 886 121 982 m 269 883 b 154 743 192 883 154 831 l 154 229 b 269 89 154 140 192 89 b 385 229 349 89 385 140 l 385 743 b 269 883 385 831 349 883 "},"Ò":{"ha":540,"x_min":0,"x_max":0,"o":"m 242 1174 l 338 1031 l 258 1031 l 129 1174 m 269 982 b 493 738 419 982 493 886 l 493 235 b 269 -10 493 88 419 -10 b 47 235 121 -10 47 88 l 47 738 b 269 982 47 886 121 982 m 269 883 b 154 743 192 883 154 831 l 154 229 b 269 89 154 140 192 89 b 385 229 349 89 385 140 l 385 743 b 269 883 385 831 349 883 "},"Ő":{"ha":540,"x_min":0,"x_max":0,"o":"m 319 1174 l 208 1031 l 140 1031 l 219 1174 m 469 1174 l 357 1031 l 289 1031 l 368 1174 m 269 982 b 493 738 419 982 493 886 l 493 235 b 269 -10 493 88 419 -10 b 47 235 121 -10 47 88 l 47 738 b 269 982 47 886 121 982 m 269 883 b 154 743 192 883 154 831 l 154 229 b 269 89 154 140 192 89 b 385 229 349 89 385 140 l 385 743 b 269 883 385 831 349 883 "},"Ō":{"ha":540,"x_min":0,"x_max":0,"o":"m 415 1119 l 415 1043 l 126 1043 l 126 1119 m 269 982 b 493 738 419 982 493 886 l 493 235 b 269 -10 493 88 419 -10 b 47 235 121 -10 47 88 l 47 738 b 269 982 47 886 121 982 m 269 883 b 154 743 192 883 154 831 l 154 229 b 269 89 154 140 192 89 b 385 229 349 89 385 140 l 385 743 b 269 883 385 831 349 883 "},"Ø":{"ha":540,"x_min":0,"x_max":0,"o":"m 451 897 b 493 738 479 856 493 801 l 493 235 b 269 -10 493 88 419 -10 b 128 33 210 -10 163 6 l 101 -36 l 54 -18 l 89 75 b 47 235 61 117 47 171 l 47 738 b 269 982 47 886 121 982 b 413 939 329 982 376 967 l 438 1007 l 486 989 m 369 825 b 269 883 351 863 319 883 b 154 743 192 883 154 831 l 154 250 m 269 89 b 385 229 349 89 385 140 l 385 719 l 169 146 b 269 89 188 110 221 89 "},"Ǿ":{"ha":540,"x_min":0,"x_max":0,"o":"m 304 1174 l 413 1174 l 283 1031 l 207 1031 m 451 897 b 493 738 479 856 493 801 l 493 235 b 269 -10 493 88 419 -10 b 128 33 210 -10 163 6 l 101 -36 l 54 -18 l 89 75 b 47 235 61 117 47 171 l 47 738 b 269 982 47 886 121 982 b 413 939 329 982 376 967 l 438 1007 l 486 989 m 369 825 b 269 883 351 863 319 883 b 154 743 192 883 154 831 l 154 250 m 269 89 b 385 229 349 89 385 140 l 385 719 l 169 146 b 269 89 188 110 221 89 "},"Õ":{"ha":540,"x_min":0,"x_max":0,"o":"m 442 1114 b 343 1035 421 1058 386 1035 b 215 1075 289 1033 258 1075 b 157 1033 190 1075 172 1064 l 103 1071 b 206 1151 126 1128 163 1150 b 333 1110 261 1151 292 1110 b 389 1151 357 1111 374 1122 m 269 982 b 493 738 419 982 493 886 l 493 235 b 269 -10 493 88 419 -10 b 47 235 121 -10 47 88 l 47 738 b 269 982 47 886 121 982 m 269 883 b 154 743 192 883 154 831 l 154 229 b 269 89 154 140 192 89 b 385 229 349 89 385 140 l 385 743 b 269 883 385 831 349 883 "},"Œ":{"ha":801,"x_min":0,"x_max":0,"o":"m 706 542 l 706 444 l 482 444 l 482 99 l 757 99 l 757 0 l 261 0 b 46 242 111 0 46 96 l 46 731 b 261 972 46 876 111 972 l 757 972 l 757 874 l 482 874 l 482 542 m 263 874 b 154 736 186 874 154 819 l 154 236 b 263 99 154 153 186 99 l 375 99 l 375 874 "},"P":{"ha":519,"x_min":0,"x_max":0,"o":"m 268 972 b 486 735 421 972 486 882 l 486 618 b 260 383 486 464 414 383 l 164 383 l 164 0 l 56 0 l 56 972 m 260 481 b 379 611 340 481 379 518 l 379 740 b 268 874 379 829 347 874 l 164 874 l 164 481 "},"Þ":{"ha":524,"x_min":0,"x_max":0,"o":"m 268 832 b 486 593 421 832 486 742 l 486 478 b 260 242 486 322 414 242 l 164 242 l 164 0 l 56 0 l 56 972 l 164 972 l 164 832 m 260 340 b 379 471 340 340 379 376 l 379 600 b 268 733 379 688 347 733 l 164 733 l 164 340 "},"Q":{"ha":558,"x_min":0,"x_max":0,"o":"m 269 982 b 493 738 419 982 493 886 l 493 235 b 456 83 493 175 481 122 b 515 53 467 60 485 53 l 529 53 l 529 -43 l 511 -43 b 388 19 450 -43 410 -21 b 269 -10 357 1 317 -10 b 47 235 121 -10 47 88 l 47 738 b 269 982 47 886 121 982 m 269 883 b 154 743 192 883 154 831 l 154 229 b 269 89 154 140 192 89 b 385 229 349 89 385 140 l 385 743 b 269 883 385 831 349 883 "},"R":{"ha":547,"x_min":0,"x_max":0,"o":"m 272 972 b 489 750 425 972 489 894 l 489 671 b 368 471 489 564 451 497 b 490 268 457 444 490 372 l 490 117 b 510 0 490 74 492 33 l 400 0 b 382 118 388 28 382 53 l 382 271 b 240 415 382 381 331 415 l 164 415 l 164 0 l 56 0 l 56 972 m 244 514 b 382 647 331 514 382 542 l 382 740 b 269 874 382 828 350 874 l 164 874 l 164 514 "},"Ŕ":{"ha":547,"x_min":0,"x_max":0,"o":"m 399 1174 l 269 1031 l 194 1031 l 290 1174 m 272 972 b 489 750 425 972 489 894 l 489 671 b 368 471 489 564 451 497 b 490 268 457 444 490 372 l 490 117 b 510 0 490 74 492 33 l 400 0 b 382 118 388 28 382 53 l 382 271 b 240 415 382 381 331 415 l 164 415 l 164 0 l 56 0 l 56 972 m 244 514 b 382 647 331 514 382 542 l 382 740 b 269 874 382 828 350 874 l 164 874 l 164 514 "},"Ř":{"ha":547,"x_min":0,"x_max":0,"o":"m 185 1169 l 258 1086 l 332 1169 l 426 1169 l 306 1031 l 210 1031 l 90 1169 m 272 972 b 489 750 425 972 489 894 l 489 671 b 368 471 489 564 451 497 b 490 268 457 444 490 372 l 490 117 b 510 0 490 74 492 33 l 400 0 b 382 118 388 28 382 53 l 382 271 b 240 415 382 381 331 415 l 164 415 l 164 0 l 56 0 l 56 972 m 244 514 b 382 647 331 514 382 542 l 382 740 b 269 874 382 828 350 874 l 164 874 l 164 514 "},"S":{"ha":517,"x_min":0,"x_max":0,"o":"m 260 982 b 476 739 407 982 476 886 l 476 713 l 374 713 l 374 744 b 263 883 374 832 340 883 b 151 746 185 883 151 832 b 478 233 151 528 478 507 b 258 -10 478 86 407 -10 b 40 233 110 -10 40 86 l 40 289 l 142 289 l 142 228 b 256 89 142 140 178 89 b 369 228 333 89 369 140 b 44 739 369 444 44 465 b 260 982 44 889 114 982 "},"Ś":{"ha":517,"x_min":0,"x_max":0,"o":"m 401 1174 l 272 1031 l 197 1031 l 293 1174 m 260 982 b 476 739 407 982 476 886 l 476 713 l 374 713 l 374 744 b 263 883 374 832 340 883 b 151 746 185 883 151 832 b 478 233 151 528 478 507 b 258 -10 478 86 407 -10 b 40 233 110 -10 40 86 l 40 289 l 142 289 l 142 228 b 256 89 142 140 178 89 b 369 228 333 89 369 140 b 44 739 369 444 44 465 b 260 982 44 889 114 982 "},"Š":{"ha":517,"x_min":0,"x_max":0,"o":"m 188 1169 l 260 1086 l 333 1169 l 429 1169 l 308 1031 l 213 1031 l 93 1169 m 260 982 b 476 739 407 982 476 886 l 476 713 l 374 713 l 374 744 b 263 883 374 832 340 883 b 151 746 185 883 151 832 b 478 233 151 528 478 507 b 258 -10 478 86 407 -10 b 40 233 110 -10 40 86 l 40 289 l 142 289 l 142 228 b 256 89 142 140 178 89 b 369 228 333 89 369 140 b 44 739 369 444 44 465 b 260 982 44 889 114 982 "},"Ş":{"ha":517,"x_min":0,"x_max":0,"o":"m 279 -51 b 382 -122 344 -51 382 -78 b 250 -211 382 -178 333 -211 b 122 -125 169 -211 122 -179 l 122 -114 l 193 -114 l 193 -124 b 250 -164 193 -146 214 -161 b 310 -119 288 -164 310 -147 b 242 -78 310 -93 285 -78 l 229 -78 l 229 -8 b 40 233 99 3 40 96 l 40 289 l 142 289 l 142 228 b 256 89 142 140 178 89 b 369 228 333 89 369 140 b 44 739 369 444 44 465 b 260 982 44 889 114 982 b 476 739 407 982 476 886 l 476 713 l 374 713 l 374 744 b 263 883 374 832 340 883 b 151 746 185 883 151 832 b 478 233 151 528 478 507 b 279 -8 478 93 414 0 "},"Ŝ":{"ha":517,"x_min":0,"x_max":0,"o":"m 188 1029 l 93 1029 l 214 1169 l 310 1169 l 429 1029 l 335 1029 l 261 1111 m 260 982 b 476 739 407 982 476 886 l 476 713 l 374 713 l 374 744 b 263 883 374 832 340 883 b 151 746 185 883 151 832 b 478 233 151 528 478 507 b 258 -10 478 86 407 -10 b 40 233 110 -10 40 86 l 40 289 l 142 289 l 142 228 b 256 89 142 140 178 89 b 369 228 333 89 369 140 b 44 739 369 444 44 465 b 260 982 44 889 114 982 "},"T":{"ha":504,"x_min":0,"x_max":0,"o":"m 197 0 l 197 874 l 18 874 l 18 972 l 485 972 l 485 874 l 306 874 l 306 0 "},"Ŧ":{"ha":517,"x_min":0,"x_max":0,"o":"m 411 661 l 411 581 l 313 581 l 313 0 l 204 0 l 204 581 l 106 581 l 106 661 l 204 661 l 204 874 l 25 874 l 25 972 l 492 972 l 492 874 l 313 874 l 313 661 "},"Ť":{"ha":517,"x_min":0,"x_max":0,"o":"m 185 1167 l 257 1083 l 332 1167 l 426 1167 l 306 1026 l 210 1026 l 90 1167 m 204 0 l 204 874 l 25 874 l 25 972 l 492 972 l 492 874 l 313 874 l 313 0 "},"U":{"ha":538,"x_min":0,"x_max":0,"o":"m 158 229 b 272 89 158 142 193 89 b 385 229 350 89 385 142 l 385 972 l 486 972 l 486 235 b 268 -11 486 88 418 -11 b 51 235 119 -11 51 88 l 51 972 l 158 972 "},"Ú":{"ha":538,"x_min":0,"x_max":0,"o":"m 411 1174 l 282 1031 l 207 1031 l 304 1174 m 486 235 b 268 -11 486 88 418 -11 b 51 235 119 -11 51 88 l 51 972 l 158 972 l 158 229 b 272 89 158 142 193 89 b 385 229 350 89 385 142 l 385 972 l 486 972 "},"Ŭ":{"ha":538,"x_min":0,"x_max":0,"o":"m 415 1164 b 269 1022 414 1076 360 1022 b 125 1164 179 1022 126 1076 l 190 1164 b 269 1090 194 1108 225 1090 b 350 1164 314 1090 346 1108 m 486 235 b 268 -11 486 88 418 -11 b 51 235 119 -11 51 88 l 51 972 l 158 972 l 158 229 b 272 89 158 142 193 89 b 385 229 350 89 385 142 l 385 972 l 486 972 "},"Û":{"ha":538,"x_min":0,"x_max":0,"o":"m 197 1029 l 103 1029 l 222 1169 l 318 1169 l 439 1029 l 344 1029 l 269 1111 m 486 235 b 268 -11 486 88 418 -11 b 51 235 119 -11 51 88 l 51 972 l 158 972 l 158 229 b 272 89 158 142 193 89 b 385 229 350 89 385 142 l 385 972 l 486 972 "},"Ü":{"ha":538,"x_min":0,"x_max":0,"o":"m 232 1153 l 232 1028 l 136 1028 l 136 1153 m 404 1153 l 404 1028 l 310 1028 l 310 1153 m 486 235 b 268 -11 486 88 418 -11 b 51 235 119 -11 51 88 l 51 972 l 158 972 l 158 229 b 272 89 158 142 193 89 b 385 229 350 89 385 142 l 385 972 l 486 972 "},"Ù":{"ha":538,"x_min":0,"x_max":0,"o":"m 240 1169 l 338 1026 l 257 1026 l 128 1169 m 486 235 b 268 -11 486 88 418 -11 b 51 235 119 -11 51 88 l 51 972 l 158 972 l 158 229 b 272 89 158 142 193 89 b 385 229 350 89 385 142 l 385 972 l 486 972 "},"Ű":{"ha":538,"x_min":0,"x_max":0,"o":"m 318 1172 l 207 1029 l 139 1029 l 218 1172 m 468 1172 l 356 1029 l 289 1029 l 367 1172 m 486 235 b 268 -11 486 88 418 -11 b 51 235 119 -11 51 88 l 51 972 l 158 972 l 158 229 b 272 89 158 142 193 89 b 385 229 350 89 385 142 l 385 972 l 486 972 "},"Ū":{"ha":538,"x_min":0,"x_max":0,"o":"m 414 1119 l 414 1042 l 129 1042 l 129 1119 m 486 235 b 268 -11 486 88 418 -11 b 51 235 119 -11 51 88 l 51 972 l 158 972 l 158 229 b 272 89 158 142 193 89 b 385 229 350 89 385 142 l 385 972 l 486 972 "},"Ų":{"ha":538,"x_min":0,"x_max":0,"o":"m 486 235 b 382 7 486 143 467 56 b 328 -96 344 -22 326 -68 b 379 -137 328 -125 353 -137 b 435 -125 406 -137 419 -132 l 435 -182 b 349 -199 407 -194 383 -199 b 244 -121 288 -199 244 -174 b 318 -6 243 -79 272 -37 b 268 -11 303 -10 286 -11 b 51 235 119 -11 51 88 l 51 972 l 158 972 l 158 229 b 272 89 158 142 193 89 b 385 229 350 89 385 142 l 385 972 l 486 972 "},"Ů":{"ha":538,"x_min":0,"x_max":0,"o":"m 272 1224 b 375 1122 329 1224 375 1179 b 272 1021 375 1065 329 1021 b 171 1122 215 1021 171 1065 b 272 1224 171 1179 215 1224 m 272 1172 b 222 1122 244 1172 222 1151 b 272 1072 222 1093 244 1072 b 324 1122 300 1072 324 1093 b 272 1172 324 1151 300 1172 m 486 235 b 268 -11 486 88 418 -11 b 51 235 119 -11 51 88 l 51 972 l 158 972 l 158 229 b 272 89 158 142 193 89 b 385 229 350 89 385 142 l 385 972 l 486 972 "},"Ũ":{"ha":538,"x_min":0,"x_max":0,"o":"m 440 1114 b 340 1035 418 1058 383 1035 b 214 1075 286 1033 257 1075 b 156 1033 189 1075 171 1064 l 101 1071 b 203 1151 124 1128 160 1150 b 331 1110 258 1151 289 1110 b 386 1151 354 1111 372 1122 m 486 235 b 268 -11 486 88 418 -11 b 51 235 119 -11 51 88 l 51 972 l 158 972 l 158 229 b 272 89 158 142 193 89 b 385 229 350 89 385 142 l 385 972 l 486 972 "},"V":{"ha":581,"x_min":0,"x_max":0,"o":"m 138 972 l 296 126 l 453 972 l 553 972 l 371 0 l 211 0 l 28 972 "},"W":{"ha":810,"x_min":0,"x_max":0,"o":"m 314 0 l 165 0 l 32 972 l 138 972 l 251 144 l 360 971 l 467 971 l 574 143 l 683 972 l 778 972 l 646 0 l 503 0 l 410 660 "},"Ẃ":{"ha":810,"x_min":0,"x_max":0,"o":"m 543 1169 l 414 1026 l 338 1026 l 435 1169 m 314 0 l 165 0 l 32 972 l 138 972 l 251 144 l 360 971 l 467 971 l 574 143 l 683 972 l 778 972 l 646 0 l 503 0 l 410 660 "},"Ŵ":{"ha":810,"x_min":0,"x_max":0,"o":"m 333 1028 l 239 1028 l 358 1168 l 454 1168 l 575 1028 l 481 1028 l 407 1110 m 314 0 l 165 0 l 32 972 l 138 972 l 251 144 l 360 971 l 467 971 l 574 143 l 683 972 l 778 972 l 646 0 l 503 0 l 410 660 "},"Ẅ":{"ha":810,"x_min":0,"x_max":0,"o":"m 368 1154 l 368 1029 l 274 1029 l 274 1154 m 540 1154 l 540 1029 l 446 1029 l 446 1154 m 314 0 l 165 0 l 32 972 l 138 972 l 251 144 l 360 971 l 467 971 l 574 143 l 683 972 l 778 972 l 646 0 l 503 0 l 410 660 "},"Ẁ":{"ha":810,"x_min":0,"x_max":0,"o":"m 385 1174 l 481 1031 l 401 1031 l 272 1174 m 314 0 l 165 0 l 32 972 l 138 972 l 251 144 l 360 971 l 467 971 l 574 143 l 683 972 l 778 972 l 646 0 l 503 0 l 410 660 "},"X":{"ha":604,"x_min":0,"x_max":0,"o":"m 297 419 l 135 0 l 32 0 l 228 501 l 44 972 l 157 972 l 307 583 l 458 972 l 560 972 l 378 501 l 572 0 l 458 0 "},"Y":{"ha":564,"x_min":0,"x_max":0,"o":"m 228 349 l 22 972 l 135 972 l 286 494 l 439 972 l 542 972 l 335 349 l 335 0 l 228 0 "},"Ý":{"ha":564,"x_min":0,"x_max":0,"o":"m 426 1169 l 297 1026 l 222 1026 l 319 1169 m 228 349 l 22 972 l 135 972 l 286 494 l 439 972 l 542 972 l 335 349 l 335 0 l 228 0 "},"Ŷ":{"ha":564,"x_min":0,"x_max":0,"o":"m 213 1028 l 118 1028 l 238 1167 l 333 1167 l 454 1028 l 360 1028 l 286 1110 m 228 349 l 22 972 l 135 972 l 286 494 l 439 972 l 542 972 l 335 349 l 335 0 l 228 0 "},"Ÿ":{"ha":564,"x_min":0,"x_max":0,"o":"m 246 1151 l 246 1026 l 151 1026 l 151 1151 m 418 1151 l 418 1026 l 324 1026 l 324 1151 m 228 349 l 22 972 l 135 972 l 286 494 l 439 972 l 542 972 l 335 349 l 335 0 l 228 0 "},"Ỳ":{"ha":564,"x_min":0,"x_max":0,"o":"m 258 1174 l 354 1031 l 275 1031 l 146 1174 m 228 349 l 22 972 l 135 972 l 286 494 l 439 972 l 542 972 l 335 349 l 335 0 l 228 0 "},"Z":{"ha":526,"x_min":0,"x_max":0,"o":"m 482 0 l 40 0 l 40 97 l 374 874 l 56 874 l 56 972 l 485 972 l 485 875 l 150 99 l 482 99 "},"Ź":{"ha":526,"x_min":0,"x_max":0,"o":"m 413 1174 l 283 1031 l 208 1031 l 304 1174 m 482 0 l 40 0 l 40 97 l 374 874 l 56 874 l 56 972 l 485 972 l 485 875 l 150 99 l 482 99 "},"Ž":{"ha":526,"x_min":0,"x_max":0,"o":"m 196 1169 l 268 1086 l 343 1169 l 438 1169 l 317 1029 l 221 1029 l 101 1169 m 482 0 l 40 0 l 40 97 l 374 874 l 56 874 l 56 972 l 485 972 l 485 875 l 150 99 l 482 99 "},"Ż":{"ha":526,"x_min":0,"x_max":0,"o":"m 321 1156 l 321 1031 l 226 1031 l 226 1156 m 482 0 l 40 0 l 40 97 l 374 874 l 56 874 l 56 972 l 485 972 l 485 875 l 150 99 l 482 99 "},"Ģ":{"ha":532,"x_min":0,"x_max":0,"o":"m 265 982 b 485 738 415 982 485 885 l 485 654 l 382 654 l 382 743 b 268 883 382 831 347 883 b 154 743 190 883 154 831 l 154 229 b 268 89 154 142 190 89 b 382 229 347 89 382 142 l 382 424 l 282 424 l 282 521 l 485 521 l 485 235 b 265 -10 485 88 415 -10 b 47 235 117 -10 47 88 l 47 738 b 265 982 47 885 117 982 m 254 -168 l 219 -168 l 219 -46 l 311 -46 l 311 -158 l 263 -246 l 222 -246 "},"Ķ":{"ha":568,"x_min":0,"x_max":0,"o":"m 221 422 l 164 326 l 164 0 l 56 0 l 56 972 l 164 972 l 164 503 l 422 972 l 532 972 l 286 529 l 540 0 l 429 0 m 274 -168 l 239 -168 l 239 -46 l 331 -46 l 331 -158 l 282 -246 l 242 -246 "},"Ļ":{"ha":468,"x_min":0,"x_max":0,"o":"m 56 0 l 56 972 l 164 972 l 164 99 l 442 99 l 442 0 m 242 -169 l 207 -169 l 207 -49 l 299 -49 l 299 -161 l 250 -249 l 210 -249 "},"Ņ":{"ha":568,"x_min":0,"x_max":0,"o":"m 151 0 l 54 0 l 54 972 l 192 972 l 417 269 l 417 972 l 513 972 l 513 0 l 400 0 l 151 786 m 272 -168 l 238 -168 l 238 -46 l 328 -46 l 328 -158 l 279 -246 l 240 -246 "},"Ŗ":{"ha":547,"x_min":0,"x_max":0,"o":"m 272 972 b 489 750 425 972 489 894 l 489 671 b 368 471 489 564 451 497 b 490 268 457 444 490 372 l 490 117 b 510 0 490 74 492 33 l 400 0 b 382 118 388 28 382 53 l 382 271 b 240 415 382 381 331 415 l 164 415 l 164 0 l 56 0 l 56 972 m 244 514 b 382 647 331 514 382 542 l 382 740 b 269 874 382 828 350 874 l 164 874 l 164 514 m 261 -167 l 228 -167 l 228 -46 l 318 -46 l 318 -158 l 269 -246 l 229 -246 "},"Ţ":{"ha":517,"x_min":0,"x_max":0,"o":"m 283 0 l 283 -53 b 376 -131 336 -53 376 -78 b 254 -233 376 -206 317 -235 b 135 -142 194 -233 135 -204 l 135 -131 l 200 -131 l 200 -142 b 253 -182 200 -172 229 -182 b 310 -135 282 -182 310 -168 b 244 -89 310 -99 282 -89 l 232 -89 l 232 0 l 204 0 l 204 874 l 25 874 l 25 972 l 492 972 l 492 874 l 313 874 l 313 0 "},"Ș":{"ha":517,"x_min":0,"x_max":0,"o":"m 260 982 b 476 739 407 982 476 886 l 476 713 l 374 713 l 374 744 b 263 883 374 832 340 883 b 151 746 185 883 151 832 b 478 233 151 528 478 507 b 258 -10 478 86 407 -10 b 40 233 110 -10 40 86 l 40 289 l 142 289 l 142 228 b 256 89 142 140 178 89 b 369 228 333 89 369 140 b 44 739 369 444 44 465 b 260 982 44 889 114 982 m 244 -168 l 210 -168 l 210 -46 l 301 -46 l 301 -158 l 253 -246 l 213 -246 "},"Ț":{"ha":517,"x_min":0,"x_max":0,"o":"m 204 0 l 204 874 l 25 874 l 25 972 l 492 972 l 492 874 l 313 874 l 313 0 m 247 -168 l 213 -168 l 213 -46 l 304 -46 l 304 -158 l 256 -246 l 215 -246 "},"Ḃ":{"ha":544,"x_min":0,"x_max":0,"o":"m 294 1153 l 294 1028 l 200 1028 l 200 1153 m 274 972 b 485 757 425 972 485 900 l 485 711 b 371 518 485 608 456 544 b 501 310 465 492 501 417 l 501 228 b 279 0 501 82 431 0 l 56 0 l 56 972 m 247 560 b 378 689 333 560 378 588 l 378 746 b 271 874 378 832 349 874 l 164 874 l 164 560 m 279 99 b 394 231 358 99 394 140 l 394 317 b 258 461 394 425 351 461 l 164 461 l 164 99 "},"Ḋ":{"ha":550,"x_min":0,"x_max":0,"o":"m 304 1153 l 304 1028 l 210 1028 l 210 1153 m 283 972 b 504 731 435 972 504 881 l 504 240 b 283 0 504 92 435 0 l 56 0 l 56 972 m 282 99 b 397 236 360 99 397 147 l 397 736 b 281 874 397 825 360 874 l 164 874 l 164 99 "},"Ḟ":{"ha":472,"x_min":0,"x_max":0,"o":"m 293 1151 l 293 1026 l 199 1026 l 199 1151 m 388 519 l 388 421 l 164 421 l 164 0 l 56 0 l 56 972 l 442 972 l 442 874 l 164 874 l 164 519 "},"Ṁ":{"ha":726,"x_min":0,"x_max":0,"o":"m 410 1156 l 410 1029 l 315 1029 l 315 1156 m 414 1 l 310 1 l 149 775 l 149 0 l 54 0 l 54 972 l 206 972 l 365 196 l 519 972 l 671 972 l 671 0 l 568 0 l 568 782 "},"Ṗ":{"ha":515,"x_min":0,"x_max":0,"o":"m 297 1153 l 297 1028 l 203 1028 l 203 1153 m 268 972 b 486 735 421 972 486 882 l 486 618 b 260 383 486 464 414 383 l 164 383 l 164 0 l 56 0 l 56 972 m 260 481 b 379 611 340 481 379 518 l 379 740 b 268 874 379 829 347 874 l 164 874 l 164 481 "},"Ṡ":{"ha":517,"x_min":0,"x_max":0,"o":"m 306 1153 l 306 1028 l 211 1028 l 211 1153 m 260 982 b 476 739 407 982 476 886 l 476 713 l 374 713 l 374 744 b 263 883 374 832 340 883 b 151 746 185 883 151 832 b 478 233 151 528 478 507 b 258 -10 478 86 407 -10 b 40 233 110 -10 40 86 l 40 289 l 142 289 l 142 228 b 256 89 142 140 178 89 b 369 228 333 89 369 140 b 44 739 369 444 44 465 b 260 982 44 889 114 982 "},"Ṫ":{"ha":517,"x_min":0,"x_max":0,"o":"m 306 1153 l 306 1028 l 211 1028 l 211 1153 m 204 0 l 204 874 l 25 874 l 25 972 l 492 972 l 492 874 l 313 874 l 313 0 "},"a":{"ha":586,"x_min":0,"x_max":0,"o":"m 165 196 l 128 0 l 28 0 l 214 972 l 371 972 l 557 0 l 449 0 l 411 196 m 179 289 l 396 289 l 286 850 "},"á":{"ha":586,"x_min":0,"x_max":0,"o":"m 424 1167 l 296 1024 l 219 1024 l 317 1167 m 165 196 l 128 0 l 28 0 l 214 972 l 371 972 l 557 0 l 449 0 l 411 196 m 179 289 l 396 289 l 286 850 "},"ă":{"ha":586,"x_min":0,"x_max":0,"o":"m 436 1158 b 290 1018 436 1072 381 1018 b 147 1158 200 1018 149 1072 l 213 1158 b 290 1086 215 1104 247 1086 b 371 1158 335 1086 368 1104 m 165 196 l 128 0 l 28 0 l 214 972 l 371 972 l 557 0 l 449 0 l 411 196 m 179 289 l 396 289 l 286 850 "},"â":{"ha":586,"x_min":0,"x_max":0,"o":"m 218 1024 l 124 1024 l 243 1163 l 340 1163 l 460 1024 l 365 1024 l 292 1106 m 165 196 l 128 0 l 28 0 l 214 972 l 371 972 l 557 0 l 449 0 l 411 196 m 179 289 l 396 289 l 286 850 "},"ä":{"ha":586,"x_min":0,"x_max":0,"o":"m 253 1149 l 253 1024 l 158 1024 l 158 1149 m 425 1149 l 425 1024 l 331 1024 l 331 1149 m 165 196 l 128 0 l 28 0 l 214 972 l 371 972 l 557 0 l 449 0 l 411 196 m 179 289 l 396 289 l 286 850 "},"à":{"ha":586,"x_min":0,"x_max":0,"o":"m 264 1167 l 361 1024 l 282 1024 l 153 1167 m 165 196 l 128 0 l 28 0 l 214 972 l 371 972 l 557 0 l 449 0 l 411 196 m 179 289 l 396 289 l 286 850 "},"ā":{"ha":586,"x_min":0,"x_max":0,"o":"m 439 1119 l 439 1042 l 144 1042 l 144 1119 m 165 196 l 128 0 l 28 0 l 214 972 l 371 972 l 557 0 l 449 0 l 411 196 m 179 289 l 396 289 l 286 850 "},"ą":{"ha":586,"x_min":0,"x_max":0,"o":"m 518 0 b 468 -96 485 -28 467 -69 b 519 -137 469 -125 493 -137 b 575 -125 546 -137 560 -132 l 575 -182 b 489 -199 547 -194 524 -199 b 385 -121 428 -199 386 -174 b 451 -10 383 -82 408 -40 l 411 196 l 165 196 l 128 0 l 28 0 l 214 972 l 371 972 l 557 0 m 179 289 l 396 289 l 286 850 "},"å":{"ha":586,"x_min":0,"x_max":0,"o":"m 292 1226 b 393 1125 349 1226 393 1182 b 292 1024 393 1067 349 1024 b 189 1125 233 1024 189 1067 b 292 1226 189 1182 233 1226 m 292 1175 b 240 1125 263 1175 240 1153 b 292 1075 240 1096 263 1075 b 342 1125 319 1075 342 1096 b 292 1175 342 1153 319 1175 m 165 196 l 128 0 l 28 0 l 214 972 l 371 972 l 557 0 l 449 0 l 411 196 m 179 289 l 396 289 l 286 850 "},"ã":{"ha":586,"x_min":0,"x_max":0,"o":"m 224 1147 b 351 1106 281 1147 310 1106 b 407 1147 375 1107 393 1118 l 461 1110 b 363 1031 439 1056 404 1031 b 235 1071 307 1029 278 1071 b 176 1029 210 1071 192 1061 l 122 1067 b 224 1147 144 1124 181 1146 m 165 196 l 128 0 l 28 0 l 214 972 l 371 972 l 557 0 l 449 0 l 411 196 m 179 289 l 396 289 l 286 850 "},"æ":{"ha":813,"x_min":0,"x_max":0,"o":"m 717 542 l 717 444 l 493 444 l 493 99 l 768 99 l 768 0 l 386 0 l 386 197 l 188 197 l 125 0 l 22 0 l 325 972 l 768 972 l 768 874 l 493 874 l 493 542 m 213 292 l 386 292 l 386 836 "},"ǽ":{"ha":813,"x_min":0,"x_max":0,"o":"m 569 1172 l 440 1029 l 365 1029 l 463 1172 m 717 542 l 717 444 l 493 444 l 493 99 l 768 99 l 768 0 l 386 0 l 386 197 l 188 197 l 125 0 l 22 0 l 325 972 l 768 972 l 768 874 l 493 874 l 493 542 m 213 292 l 386 292 l 386 836 "},"b":{"ha":544,"x_min":0,"x_max":0,"o":"m 274 972 b 485 757 425 972 485 900 l 485 711 b 371 518 485 608 456 544 b 501 310 465 492 501 417 l 501 228 b 279 0 501 82 431 0 l 56 0 l 56 972 m 247 560 b 378 689 333 560 378 588 l 378 746 b 271 874 378 832 349 874 l 164 874 l 164 560 m 279 99 b 394 231 358 99 394 140 l 394 317 b 258 461 394 425 351 461 l 164 461 l 164 99 "},"c":{"ha":528,"x_min":0,"x_max":0,"o":"m 265 982 b 485 738 415 982 485 885 l 485 650 l 382 650 l 382 743 b 268 883 382 831 347 883 b 154 743 190 883 154 831 l 154 229 b 268 89 154 142 190 89 b 382 229 347 89 382 142 l 382 356 l 485 356 l 485 235 b 265 -10 485 88 415 -10 b 47 235 117 -10 47 88 l 47 738 b 265 982 47 885 117 982 "},"ć":{"ha":528,"x_min":0,"x_max":0,"o":"m 407 1174 l 278 1031 l 201 1031 l 299 1174 m 265 982 b 485 738 415 982 485 885 l 485 650 l 382 650 l 382 743 b 268 883 382 831 347 883 b 154 743 190 883 154 831 l 154 229 b 268 89 154 142 190 89 b 382 229 347 89 382 142 l 382 356 l 485 356 l 485 235 b 265 -10 485 88 415 -10 b 47 235 117 -10 47 88 l 47 738 b 265 982 47 885 117 982 "},"č":{"ha":528,"x_min":0,"x_max":0,"o":"m 196 1168 l 268 1085 l 342 1168 l 438 1168 l 317 1029 l 221 1029 l 101 1168 m 265 982 b 485 738 415 982 485 885 l 485 650 l 382 650 l 382 743 b 268 883 382 831 347 883 b 154 743 190 883 154 831 l 154 229 b 268 89 154 142 190 89 b 382 229 347 89 382 142 l 382 356 l 485 356 l 485 235 b 265 -10 485 88 415 -10 b 47 235 117 -10 47 88 l 47 738 b 265 982 47 885 117 982 "},"ç":{"ha":528,"x_min":0,"x_max":0,"o":"m 265 982 b 485 738 415 982 485 885 l 485 650 l 382 650 l 382 743 b 268 883 382 831 347 883 b 154 743 190 883 154 831 l 154 229 b 268 89 154 142 190 89 b 382 229 347 89 382 142 l 382 356 l 485 356 l 485 235 b 289 -8 485 96 422 0 l 289 -51 b 392 -122 354 -51 392 -78 b 260 -211 392 -178 343 -211 b 132 -125 179 -211 132 -179 l 132 -114 l 203 -114 l 203 -124 b 260 -164 203 -146 224 -161 b 319 -119 297 -164 319 -147 b 251 -78 319 -93 294 -78 l 239 -78 l 239 -8 b 47 235 108 1 47 97 l 47 738 b 265 982 47 885 117 982 "},"ĉ":{"ha":528,"x_min":0,"x_max":0,"o":"m 194 1028 l 100 1028 l 219 1168 l 315 1168 l 436 1028 l 342 1028 l 268 1110 m 265 982 b 485 738 415 982 485 885 l 485 650 l 382 650 l 382 743 b 268 883 382 831 347 883 b 154 743 190 883 154 831 l 154 229 b 268 89 154 142 190 89 b 382 229 347 89 382 142 l 382 356 l 485 356 l 485 235 b 265 -10 485 88 415 -10 b 47 235 117 -10 47 88 l 47 738 b 265 982 47 885 117 982 "},"ċ":{"ha":528,"x_min":0,"x_max":0,"o":"m 313 1150 l 313 1025 l 218 1025 l 218 1150 m 265 982 b 485 738 415 982 485 885 l 485 650 l 382 650 l 382 743 b 268 883 382 831 347 883 b 154 743 190 883 154 831 l 154 229 b 268 89 154 142 190 89 b 382 229 347 89 382 142 l 382 356 l 485 356 l 485 235 b 265 -10 485 88 415 -10 b 47 235 117 -10 47 88 l 47 738 b 265 982 47 885 117 982 "},"d":{"ha":550,"x_min":0,"x_max":0,"o":"m 283 972 b 504 731 435 972 504 881 l 504 240 b 283 0 504 92 435 0 l 56 0 l 56 972 m 282 99 b 397 236 360 99 397 147 l 397 736 b 281 874 397 825 360 874 l 164 874 l 164 99 "},"ð":{"ha":550,"x_min":0,"x_max":0,"o":"m 283 972 b 504 731 435 972 504 881 l 504 240 b 283 0 504 92 435 0 l 56 0 l 56 442 l 1 442 l 1 529 l 56 529 l 56 972 m 274 442 l 164 442 l 164 99 l 282 99 b 397 236 360 99 397 147 l 397 736 b 281 874 397 825 360 874 l 164 874 l 164 529 l 274 529 "},"ď":{"ha":550,"x_min":0,"x_max":0,"o":"m 188 1165 l 261 1082 l 335 1165 l 431 1165 l 310 1026 l 214 1026 l 93 1165 m 283 972 b 504 731 435 972 504 881 l 504 240 b 283 0 504 92 435 0 l 56 0 l 56 972 m 282 99 b 397 236 360 99 397 147 l 397 736 b 281 874 397 825 360 874 l 164 874 l 164 99 "},"đ":{"ha":550,"x_min":0,"x_max":0,"o":"m 283 972 b 504 731 435 972 504 881 l 504 240 b 283 0 504 92 435 0 l 56 0 l 56 442 l 1 442 l 1 529 l 56 529 l 56 972 m 274 442 l 164 442 l 164 99 l 282 99 b 397 236 360 99 397 147 l 397 736 b 281 874 397 825 360 874 l 164 874 l 164 529 l 274 529 "},"e":{"ha":500,"x_min":0,"x_max":0,"o":"m 401 542 l 401 444 l 164 444 l 164 99 l 456 99 l 456 0 l 56 0 l 56 972 l 456 972 l 456 874 l 164 874 l 164 542 "},"é":{"ha":500,"x_min":0,"x_max":0,"o":"m 393 1169 l 264 1026 l 189 1026 l 286 1169 m 401 542 l 401 444 l 164 444 l 164 99 l 456 99 l 456 0 l 56 0 l 56 972 l 456 972 l 456 874 l 164 874 l 164 542 "},"ĕ":{"ha":500,"x_min":0,"x_max":0,"o":"m 399 1167 b 251 1026 397 1079 343 1026 b 108 1167 163 1026 110 1079 l 174 1167 b 251 1094 176 1113 208 1094 b 333 1167 297 1094 329 1113 m 401 542 l 401 444 l 164 444 l 164 99 l 456 99 l 456 0 l 56 0 l 56 972 l 456 972 l 456 874 l 164 874 l 164 542 "},"ě":{"ha":500,"x_min":0,"x_max":0,"o":"m 182 1165 l 254 1082 l 329 1165 l 424 1165 l 303 1026 l 207 1026 l 88 1165 m 401 542 l 401 444 l 164 444 l 164 99 l 456 99 l 456 0 l 56 0 l 56 972 l 456 972 l 456 874 l 164 874 l 164 542 "},"ê":{"ha":500,"x_min":0,"x_max":0,"o":"m 181 1026 l 86 1026 l 206 1167 l 301 1167 l 422 1026 l 328 1026 l 253 1110 m 401 542 l 401 444 l 164 444 l 164 99 l 456 99 l 456 0 l 56 0 l 56 972 l 456 972 l 456 874 l 164 874 l 164 542 "},"ë":{"ha":500,"x_min":0,"x_max":0,"o":"m 215 1151 l 215 1026 l 121 1026 l 121 1151 m 388 1151 l 388 1026 l 293 1026 l 293 1151 m 401 542 l 401 444 l 164 444 l 164 99 l 456 99 l 456 0 l 56 0 l 56 972 l 456 972 l 456 874 l 164 874 l 164 542 "},"ė":{"ha":500,"x_min":0,"x_max":0,"o":"m 303 1153 l 303 1028 l 208 1028 l 208 1153 m 401 542 l 401 444 l 164 444 l 164 99 l 456 99 l 456 0 l 56 0 l 56 972 l 456 972 l 456 874 l 164 874 l 164 542 "},"è":{"ha":500,"x_min":0,"x_max":0,"o":"m 232 1174 l 328 1031 l 249 1031 l 119 1174 m 401 542 l 401 444 l 164 444 l 164 99 l 456 99 l 456 0 l 56 0 l 56 972 l 456 972 l 456 874 l 164 874 l 164 542 "},"ē":{"ha":500,"x_min":0,"x_max":0,"o":"m 397 1121 l 397 1044 l 107 1044 l 107 1121 m 401 542 l 401 444 l 164 444 l 164 99 l 456 99 l 456 0 l 56 0 l 56 972 l 456 972 l 456 874 l 164 874 l 164 542 "},"ę":{"ha":500,"x_min":0,"x_max":0,"o":"m 401 542 l 401 444 l 164 444 l 164 99 l 456 99 l 456 0 l 410 0 b 358 -96 375 -28 358 -69 b 411 -137 360 -125 383 -137 b 465 -125 438 -137 450 -132 l 465 -182 b 381 -199 438 -194 414 -199 b 275 -121 318 -199 276 -174 b 360 0 275 -76 308 -32 l 56 0 l 56 972 l 456 972 l 456 874 l 164 874 l 164 542 "},"f":{"ha":472,"x_min":0,"x_max":0,"o":"m 388 519 l 388 421 l 164 421 l 164 0 l 56 0 l 56 972 l 442 972 l 442 874 l 164 874 l 164 519 "},"g":{"ha":532,"x_min":0,"x_max":0,"o":"m 265 982 b 485 738 415 982 485 885 l 485 654 l 382 654 l 382 743 b 268 883 382 831 347 883 b 154 743 190 883 154 831 l 154 229 b 268 89 154 142 190 89 b 382 229 347 89 382 142 l 382 424 l 282 424 l 282 521 l 485 521 l 485 235 b 265 -10 485 88 415 -10 b 47 235 117 -10 47 88 l 47 738 b 265 982 47 885 117 982 "},"ğ":{"ha":532,"x_min":0,"x_max":0,"o":"m 411 1168 b 265 1028 410 1081 356 1028 b 121 1168 175 1028 122 1081 l 186 1168 b 265 1096 190 1114 221 1096 b 346 1168 310 1096 342 1114 m 265 982 b 485 738 415 982 485 885 l 485 654 l 382 654 l 382 743 b 268 883 382 831 347 883 b 154 743 190 883 154 831 l 154 229 b 268 89 154 142 190 89 b 382 229 347 89 382 142 l 382 424 l 282 424 l 282 521 l 485 521 l 485 235 b 265 -10 485 88 415 -10 b 47 235 117 -10 47 88 l 47 738 b 265 982 47 885 117 982 "},"ĝ":{"ha":532,"x_min":0,"x_max":0,"o":"m 193 1031 l 99 1031 l 218 1169 l 314 1169 l 435 1031 l 340 1031 l 265 1113 m 265 982 b 485 738 415 982 485 885 l 485 654 l 382 654 l 382 743 b 268 883 382 831 347 883 b 154 743 190 883 154 831 l 154 229 b 268 89 154 142 190 89 b 382 229 347 89 382 142 l 382 424 l 282 424 l 282 521 l 485 521 l 485 235 b 265 -10 485 88 415 -10 b 47 235 117 -10 47 88 l 47 738 b 265 982 47 885 117 982 "},"ġ":{"ha":532,"x_min":0,"x_max":0,"o":"m 317 1153 l 317 1028 l 222 1028 l 222 1153 m 265 982 b 485 738 415 982 485 885 l 485 654 l 382 654 l 382 743 b 268 883 382 831 347 883 b 154 743 190 883 154 831 l 154 229 b 268 89 154 142 190 89 b 382 229 347 89 382 142 l 382 424 l 282 424 l 282 521 l 485 521 l 485 235 b 265 -10 485 88 415 -10 b 47 235 117 -10 47 88 l 47 738 b 265 982 47 885 117 982 "},"h":{"ha":567,"x_min":0,"x_max":0,"o":"m 164 438 l 164 0 l 56 0 l 56 972 l 164 972 l 164 535 l 403 535 l 403 972 l 511 972 l 511 0 l 403 0 l 403 438 "},"ħ":{"ha":576,"x_min":0,"x_max":0,"o":"m 517 714 l 517 0 l 407 0 l 407 438 l 168 438 l 168 0 l 60 0 l 60 714 l 10 714 l 10 794 l 60 794 l 60 972 l 168 972 l 168 794 l 407 794 l 407 972 l 517 972 l 517 794 l 567 794 l 567 714 m 407 714 l 168 714 l 168 535 l 407 535 "},"ĥ":{"ha":567,"x_min":0,"x_max":0,"o":"m 210 1029 l 115 1029 l 236 1169 l 332 1169 l 451 1029 l 357 1029 l 283 1111 m 164 438 l 164 0 l 56 0 l 56 972 l 164 972 l 164 535 l 403 535 l 403 972 l 511 972 l 511 0 l 403 0 l 403 438 "},"i":{"ha":219,"x_min":0,"x_max":0,"o":"m 164 972 l 164 0 l 56 0 l 56 972 "},"ı":{"ha":219,"x_min":0,"x_max":0,"o":"m 164 972 l 164 0 l 56 0 l 56 972 "},"í":{"ha":219,"x_min":0,"x_max":0,"o":"m 139 1169 l 247 1169 l 118 1026 l 43 1026 m 56 972 l 164 972 l 164 0 l 56 0 "},"ĭ":{"ha":219,"x_min":0,"x_max":0,"o":"m 254 1164 b 108 1022 254 1076 199 1022 b -35 1164 18 1022 -33 1076 l 31 1164 b 108 1090 33 1108 65 1090 b 189 1164 153 1090 185 1108 m 56 972 l 164 972 l 164 0 l 56 0 "},"î":{"ha":219,"x_min":0,"x_max":0,"o":"m 157 1165 l 278 1026 l 183 1026 l 110 1108 l 36 1026 l -58 1026 l 61 1165 m 56 972 l 164 972 l 164 0 l 56 0 "},"ï":{"ha":219,"x_min":0,"x_max":0,"o":"m 71 1151 l 71 1026 l -24 1026 l -24 1151 m 243 1151 l 243 1026 l 149 1026 l 149 1151 m 164 972 l 164 0 l 56 0 l 56 972 "},"ì":{"ha":219,"x_min":0,"x_max":0,"o":"m -35 1169 l 78 1169 l 175 1026 l 94 1026 m 56 972 l 164 972 l 164 0 l 56 0 "},"ĳ":{"ha":572,"x_min":0,"x_max":0,"o":"m 164 972 l 164 0 l 56 0 l 56 972 m 522 240 b 313 -1 522 57 431 1 b 246 0 288 -1 269 -1 l 246 99 b 299 97 264 97 282 97 b 414 233 372 101 414 135 l 414 972 l 522 972 "},"ī":{"ha":219,"x_min":0,"x_max":0,"o":"m 247 1119 l 247 1042 l -29 1042 l -29 1119 m 164 972 l 164 0 l 56 0 l 56 972 "},"į":{"ha":219,"x_min":0,"x_max":0,"o":"m 144 0 b 94 -96 110 -28 93 -69 b 146 -137 94 -125 118 -137 b 201 -125 172 -137 185 -132 l 201 -182 b 115 -199 174 -194 149 -199 b 11 -121 54 -199 11 -174 b 96 0 10 -78 40 -33 l 56 0 l 56 972 l 164 972 l 164 0 "},"ĩ":{"ha":219,"x_min":0,"x_max":0,"o":"m 279 1114 b 181 1033 258 1058 224 1033 b 53 1074 126 1033 96 1075 b -6 1033 28 1074 10 1064 l -60 1069 b 43 1150 -36 1126 0 1150 b 171 1110 99 1150 129 1108 b 226 1150 194 1110 211 1121 m 164 972 l 164 0 l 56 0 l 56 972 "},"j":{"ha":354,"x_min":0,"x_max":0,"o":"m 28 99 b 82 97 46 97 65 97 b 196 233 153 101 196 135 l 196 972 l 303 972 l 303 240 b 96 -1 303 58 213 1 b 28 0 71 -1 51 -3 "},"ȷ":{"ha":354,"x_min":0,"x_max":0,"o":"m 28 99 b 82 97 46 97 65 97 b 196 233 153 101 196 135 l 196 972 l 303 972 l 303 240 b 96 -1 303 58 213 1 b 28 0 71 -1 51 -3 "},"ĵ":{"ha":354,"x_min":0,"x_max":0,"o":"m 158 1026 l 64 1026 l 183 1167 l 279 1167 l 400 1026 l 306 1026 l 232 1110 m 303 240 b 96 -1 303 58 213 1 b 28 0 71 -1 51 -3 l 28 99 b 82 97 46 97 65 97 b 196 233 153 101 196 135 l 196 972 l 303 972 "},"k":{"ha":568,"x_min":0,"x_max":0,"o":"m 221 422 l 164 326 l 164 0 l 56 0 l 56 972 l 164 972 l 164 503 l 422 972 l 532 972 l 286 529 l 540 0 l 429 0 "},"ĸ":{"ha":568,"x_min":0,"x_max":0,"o":"m 221 422 l 164 326 l 164 0 l 56 0 l 56 972 l 164 972 l 164 503 l 422 972 l 532 972 l 286 529 l 540 0 l 429 0 "},"l":{"ha":468,"x_min":0,"x_max":0,"o":"m 56 0 l 56 972 l 164 972 l 164 99 l 442 99 l 442 0 "},"ĺ":{"ha":468,"x_min":0,"x_max":0,"o":"m 282 1169 l 153 1026 l 78 1026 l 174 1169 m 56 0 l 56 972 l 164 972 l 164 99 l 442 99 l 442 0 "},"ľ":{"ha":468,"x_min":0,"x_max":0,"o":"m 56 0 l 56 972 l 164 972 l 164 99 l 442 99 l 442 0 m 336 838 l 296 838 l 296 972 l 400 972 l 400 849 l 347 715 l 301 715 "},"ŀ":{"ha":468,"x_min":0,"x_max":0,"o":"m 56 0 l 56 972 l 164 972 l 164 99 l 442 99 l 442 0 m 378 556 l 378 421 l 274 421 l 274 556 "},"ł":{"ha":483,"x_min":0,"x_max":0,"o":"m 178 404 l 178 99 l 457 99 l 457 0 l 71 0 l 71 289 l 0 219 l 0 319 l 71 389 l 71 972 l 178 972 l 178 504 l 329 661 l 329 561 "},"m":{"ha":726,"x_min":0,"x_max":0,"o":"m 414 1 l 310 1 l 149 775 l 149 0 l 54 0 l 54 972 l 206 972 l 365 196 l 519 972 l 671 972 l 671 0 l 568 0 l 568 782 "},"n":{"ha":568,"x_min":0,"x_max":0,"o":"m 151 0 l 54 0 l 54 972 l 192 972 l 417 269 l 417 972 l 513 972 l 513 0 l 400 0 l 151 786 "},"ń":{"ha":568,"x_min":0,"x_max":0,"o":"m 425 1169 l 296 1028 l 221 1028 l 318 1169 m 151 0 l 54 0 l 54 972 l 192 972 l 417 269 l 417 972 l 513 972 l 513 0 l 400 0 l 151 788 "},"ŉ":{"ha":699,"x_min":0,"x_max":0,"o":"m 56 838 l 15 838 l 15 972 l 119 972 l 119 849 l 67 715 l 21 715 m 283 0 l 186 0 l 186 972 l 324 972 l 549 269 l 549 972 l 644 972 l 644 0 l 532 0 l 283 786 "},"ň":{"ha":568,"x_min":0,"x_max":0,"o":"m 211 1169 l 285 1086 l 358 1169 l 453 1169 l 333 1029 l 238 1029 l 117 1169 m 151 0 l 54 0 l 54 972 l 192 972 l 417 269 l 417 972 l 513 972 l 513 0 l 400 0 l 151 786 "},"ñ":{"ha":568,"x_min":0,"x_max":0,"o":"m 454 1117 b 356 1036 432 1061 397 1036 b 228 1076 300 1035 271 1078 b 169 1036 203 1076 185 1067 l 115 1072 b 218 1153 138 1129 174 1153 b 344 1113 274 1153 303 1111 b 400 1153 368 1113 386 1124 m 151 0 l 54 0 l 54 972 l 192 972 l 417 269 l 417 972 l 513 972 l 513 0 l 400 0 l 151 786 "},"o":{"ha":540,"x_min":0,"x_max":0,"o":"m 47 738 b 269 982 47 886 121 982 b 493 738 419 982 493 886 l 493 235 b 269 -10 493 88 419 -10 b 47 235 121 -10 47 88 m 154 229 b 269 89 154 140 192 89 b 385 229 349 89 385 140 l 385 743 b 269 883 385 831 349 883 b 154 743 192 883 154 831 "},"ó":{"ha":540,"x_min":0,"x_max":0,"o":"m 407 1174 l 278 1031 l 203 1031 l 300 1174 m 269 982 b 493 738 419 982 493 886 l 493 235 b 269 -10 493 88 419 -10 b 47 235 121 -10 47 88 l 47 738 b 269 982 47 886 121 982 m 269 883 b 154 743 192 883 154 831 l 154 229 b 269 89 154 140 192 89 b 385 229 349 89 385 140 l 385 743 b 269 883 385 831 349 883 "},"ŏ":{"ha":540,"x_min":0,"x_max":0,"o":"m 415 1168 b 268 1028 414 1081 360 1028 b 125 1168 179 1028 126 1081 l 190 1168 b 268 1096 193 1114 225 1096 b 350 1168 314 1096 346 1114 m 269 982 b 493 738 419 982 493 886 l 493 235 b 269 -10 493 88 419 -10 b 47 235 121 -10 47 88 l 47 738 b 269 982 47 886 121 982 m 269 883 b 154 743 192 883 154 831 l 154 229 b 269 89 154 140 192 89 b 385 229 349 89 385 140 l 385 743 b 269 883 385 831 349 883 "},"ô":{"ha":540,"x_min":0,"x_max":0,"o":"m 196 1029 l 101 1029 l 221 1169 l 317 1169 l 438 1029 l 343 1029 l 268 1111 m 269 982 b 493 738 419 982 493 886 l 493 235 b 269 -10 493 88 419 -10 b 47 235 121 -10 47 88 l 47 738 b 269 982 47 886 121 982 m 269 883 b 154 743 192 883 154 831 l 154 229 b 269 89 154 140 192 89 b 385 229 349 89 385 140 l 385 743 b 269 883 385 831 349 883 "},"ö":{"ha":540,"x_min":0,"x_max":0,"o":"m 231 1154 l 231 1029 l 136 1029 l 136 1154 m 403 1154 l 403 1029 l 308 1029 l 308 1154 m 269 982 b 493 738 419 982 493 886 l 493 235 b 269 -10 493 88 419 -10 b 47 235 121 -10 47 88 l 47 738 b 269 982 47 886 121 982 m 269 883 b 154 743 192 883 154 831 l 154 229 b 269 89 154 140 192 89 b 385 229 349 89 385 140 l 385 743 b 269 883 385 831 349 883 "},"ò":{"ha":540,"x_min":0,"x_max":0,"o":"m 242 1174 l 338 1031 l 258 1031 l 129 1174 m 269 982 b 493 738 419 982 493 886 l 493 235 b 269 -10 493 88 419 -10 b 47 235 121 -10 47 88 l 47 738 b 269 982 47 886 121 982 m 269 883 b 154 743 192 883 154 831 l 154 229 b 269 89 154 140 192 89 b 385 229 349 89 385 140 l 385 743 b 269 883 385 831 349 883 "},"ő":{"ha":540,"x_min":0,"x_max":0,"o":"m 319 1174 l 208 1031 l 140 1031 l 219 1174 m 469 1174 l 357 1031 l 289 1031 l 368 1174 m 269 982 b 493 738 419 982 493 886 l 493 235 b 269 -10 493 88 419 -10 b 47 235 121 -10 47 88 l 47 738 b 269 982 47 886 121 982 m 269 883 b 154 743 192 883 154 831 l 154 229 b 269 89 154 140 192 89 b 385 229 349 89 385 140 l 385 743 b 269 883 385 831 349 883 "},"ō":{"ha":540,"x_min":0,"x_max":0,"o":"m 415 1119 l 415 1043 l 126 1043 l 126 1119 m 269 982 b 493 738 419 982 493 886 l 493 235 b 269 -10 493 88 419 -10 b 47 235 121 -10 47 88 l 47 738 b 269 982 47 886 121 982 m 269 883 b 154 743 192 883 154 831 l 154 229 b 269 89 154 140 192 89 b 385 229 349 89 385 140 l 385 743 b 269 883 385 831 349 883 "},"ø":{"ha":540,"x_min":0,"x_max":0,"o":"m 451 897 b 493 738 479 856 493 801 l 493 235 b 269 -10 493 88 419 -10 b 128 33 210 -10 163 6 l 101 -36 l 54 -18 l 89 75 b 47 235 61 117 47 171 l 47 738 b 269 982 47 886 121 982 b 413 939 329 982 376 967 l 438 1007 l 486 989 m 369 825 b 269 883 351 863 319 883 b 154 743 192 883 154 831 l 154 250 m 269 89 b 385 229 349 89 385 140 l 385 719 l 169 146 b 269 89 188 110 221 89 "},"ǿ":{"ha":540,"x_min":0,"x_max":0,"o":"m 304 1174 l 413 1174 l 283 1031 l 207 1031 m 451 897 b 493 738 479 856 493 801 l 493 235 b 269 -10 493 88 419 -10 b 128 33 210 -10 163 6 l 101 -36 l 54 -18 l 89 75 b 47 235 61 117 47 171 l 47 738 b 269 982 47 886 121 982 b 413 939 329 982 376 967 l 438 1007 l 486 989 m 369 825 b 269 883 351 863 319 883 b 154 743 192 883 154 831 l 154 250 m 269 89 b 385 229 349 89 385 140 l 385 719 l 169 146 b 269 89 188 110 221 89 "},"õ":{"ha":540,"x_min":0,"x_max":0,"o":"m 442 1114 b 343 1035 421 1058 386 1035 b 215 1075 289 1033 258 1075 b 157 1033 190 1075 172 1064 l 103 1071 b 206 1151 126 1128 163 1150 b 333 1110 261 1151 292 1110 b 389 1151 357 1111 374 1122 m 269 982 b 493 738 419 982 493 886 l 493 235 b 269 -10 493 88 419 -10 b 47 235 121 -10 47 88 l 47 738 b 269 982 47 886 121 982 m 269 883 b 154 743 192 883 154 831 l 154 229 b 269 89 154 140 192 89 b 385 229 349 89 385 140 l 385 743 b 269 883 385 831 349 883 "},"œ":{"ha":801,"x_min":0,"x_max":0,"o":"m 706 542 l 706 444 l 482 444 l 482 99 l 757 99 l 757 0 l 261 0 b 46 242 111 0 46 96 l 46 731 b 261 972 46 876 111 972 l 757 972 l 757 874 l 482 874 l 482 542 m 263 874 b 154 736 186 874 154 819 l 154 236 b 263 99 154 153 186 99 l 375 99 l 375 874 "},"p":{"ha":515,"x_min":0,"x_max":0,"o":"m 268 972 b 486 735 421 972 486 882 l 486 618 b 260 383 486 464 414 383 l 164 383 l 164 0 l 56 0 l 56 972 m 260 481 b 379 611 340 481 379 518 l 379 740 b 268 874 379 829 347 874 l 164 874 l 164 481 "},"þ":{"ha":524,"x_min":0,"x_max":0,"o":"m 268 832 b 486 593 421 832 486 742 l 486 478 b 260 242 486 322 414 242 l 164 242 l 164 0 l 56 0 l 56 972 l 164 972 l 164 832 m 260 340 b 379 471 340 340 379 376 l 379 600 b 268 733 379 688 347 733 l 164 733 l 164 340 "},"q":{"ha":544,"x_min":0,"x_max":0,"o":"m 269 982 b 493 738 419 982 493 886 l 493 235 b 456 83 493 175 481 122 b 515 53 467 60 485 53 l 529 53 l 529 -43 l 511 -43 b 388 19 450 -43 410 -21 b 269 -10 357 1 317 -10 b 47 235 121 -10 47 88 l 47 738 b 269 982 47 886 121 982 m 269 883 b 154 743 192 883 154 831 l 154 229 b 269 89 154 140 192 89 b 385 229 349 89 385 140 l 385 743 b 269 883 385 831 349 883 "},"r":{"ha":547,"x_min":0,"x_max":0,"o":"m 272 972 b 489 750 425 972 489 894 l 489 671 b 368 471 489 564 451 497 b 490 268 457 444 490 372 l 490 117 b 510 0 490 74 492 33 l 400 0 b 382 118 388 28 382 53 l 382 271 b 240 415 382 381 331 415 l 164 415 l 164 0 l 56 0 l 56 972 m 244 514 b 382 647 331 514 382 542 l 382 740 b 269 874 382 828 350 874 l 164 874 l 164 514 "},"ŕ":{"ha":547,"x_min":0,"x_max":0,"o":"m 399 1174 l 269 1031 l 194 1031 l 290 1174 m 272 972 b 489 750 425 972 489 894 l 489 671 b 368 471 489 564 451 497 b 490 268 457 444 490 372 l 490 117 b 510 0 490 74 492 33 l 400 0 b 382 118 388 28 382 53 l 382 271 b 240 415 382 381 331 415 l 164 415 l 164 0 l 56 0 l 56 972 m 244 514 b 382 647 331 514 382 542 l 382 740 b 269 874 382 828 350 874 l 164 874 l 164 514 "},"ř":{"ha":547,"x_min":0,"x_max":0,"o":"m 185 1169 l 258 1086 l 332 1169 l 426 1169 l 306 1031 l 210 1031 l 90 1169 m 272 972 b 489 750 425 972 489 894 l 489 671 b 368 471 489 564 451 497 b 490 268 457 444 490 372 l 490 117 b 510 0 490 74 492 33 l 400 0 b 382 118 388 28 382 53 l 382 271 b 240 415 382 381 331 415 l 164 415 l 164 0 l 56 0 l 56 972 m 244 514 b 382 647 331 514 382 542 l 382 740 b 269 874 382 828 350 874 l 164 874 l 164 514 "},"s":{"ha":517,"x_min":0,"x_max":0,"o":"m 260 982 b 476 739 407 982 476 886 l 476 713 l 374 713 l 374 744 b 263 883 374 832 340 883 b 151 746 185 883 151 832 b 478 233 151 528 478 507 b 258 -10 478 86 407 -10 b 40 233 110 -10 40 86 l 40 289 l 142 289 l 142 228 b 256 89 142 140 178 89 b 369 228 333 89 369 140 b 44 739 369 444 44 465 b 260 982 44 889 114 982 "},"ś":{"ha":517,"x_min":0,"x_max":0,"o":"m 401 1174 l 272 1031 l 197 1031 l 293 1174 m 260 982 b 476 739 407 982 476 886 l 476 713 l 374 713 l 374 744 b 263 883 374 832 340 883 b 151 746 185 883 151 832 b 478 233 151 528 478 507 b 258 -10 478 86 407 -10 b 40 233 110 -10 40 86 l 40 289 l 142 289 l 142 228 b 256 89 142 140 178 89 b 369 228 333 89 369 140 b 44 739 369 444 44 465 b 260 982 44 889 114 982 "},"š":{"ha":517,"x_min":0,"x_max":0,"o":"m 186 1169 l 260 1086 l 333 1169 l 428 1169 l 307 1031 l 211 1031 l 92 1169 m 260 982 b 476 739 407 982 476 886 l 476 713 l 374 713 l 374 744 b 263 883 374 832 340 883 b 151 746 185 883 151 832 b 478 233 151 528 478 507 b 258 -10 478 86 407 -10 b 40 233 110 -10 40 86 l 40 289 l 142 289 l 142 228 b 256 89 142 140 178 89 b 369 228 333 89 369 140 b 44 739 369 444 44 465 b 260 982 44 889 114 982 "},"ş":{"ha":517,"x_min":0,"x_max":0,"o":"m 279 -51 b 382 -122 344 -51 382 -78 b 250 -211 382 -178 333 -211 b 122 -125 169 -211 122 -179 l 122 -114 l 193 -114 l 193 -124 b 250 -164 193 -146 214 -161 b 310 -119 288 -164 310 -147 b 242 -78 310 -93 285 -78 l 229 -78 l 229 -8 b 40 233 99 3 40 96 l 40 289 l 142 289 l 142 228 b 256 89 142 140 178 89 b 369 228 333 89 369 140 b 44 739 369 444 44 465 b 260 982 44 889 114 982 b 476 739 407 982 476 886 l 476 713 l 374 713 l 374 744 b 263 883 374 832 340 883 b 151 746 185 883 151 832 b 478 233 151 528 478 507 b 279 -8 478 93 414 0 "},"ŝ":{"ha":517,"x_min":0,"x_max":0,"o":"m 188 1029 l 93 1029 l 214 1169 l 310 1169 l 429 1029 l 335 1029 l 261 1111 m 260 982 b 476 739 407 982 476 886 l 476 713 l 374 713 l 374 744 b 263 883 374 832 340 883 b 151 746 185 883 151 832 b 478 233 151 528 478 507 b 258 -10 478 86 407 -10 b 40 233 110 -10 40 86 l 40 289 l 142 289 l 142 228 b 256 89 142 140 178 89 b 369 228 333 89 369 140 b 44 739 369 444 44 465 b 260 982 44 889 114 982 "},"ß":{"ha":1013,"x_min":0,"x_max":0,"o":"m 257 982 b 474 739 406 982 474 886 l 474 713 l 371 713 l 371 744 b 260 883 371 832 338 883 b 149 746 183 883 149 832 b 475 233 149 528 475 507 b 256 -10 475 86 406 -10 b 38 233 107 -10 38 86 l 38 289 l 139 289 l 139 228 b 253 89 139 140 175 89 b 367 228 332 89 367 140 b 42 739 367 444 42 465 b 257 982 42 889 111 982 m 758 982 b 974 739 906 982 974 886 l 974 713 l 872 713 l 872 744 b 761 883 872 832 839 883 b 650 746 683 883 650 832 b 975 233 650 528 975 507 b 757 -10 975 86 906 -10 b 538 233 607 -10 538 86 l 538 289 l 640 289 l 640 228 b 754 89 640 140 676 89 b 868 228 832 89 868 140 b 542 739 868 444 542 465 b 758 982 542 889 613 982 "},"t":{"ha":500,"x_min":0,"x_max":0,"o":"m 196 0 l 196 874 l 17 874 l 17 972 l 482 972 l 482 874 l 303 874 l 303 0 "},"ŧ":{"ha":517,"x_min":0,"x_max":0,"o":"m 411 661 l 411 581 l 313 581 l 313 0 l 204 0 l 204 581 l 106 581 l 106 661 l 204 661 l 204 874 l 25 874 l 25 972 l 492 972 l 492 874 l 313 874 l 313 661 "},"ť":{"ha":517,"x_min":0,"x_max":0,"o":"m 185 1167 l 257 1083 l 332 1167 l 426 1167 l 306 1026 l 210 1026 l 90 1167 m 204 0 l 204 874 l 25 874 l 25 972 l 492 972 l 492 874 l 313 874 l 313 0 "},"u":{"ha":538,"x_min":0,"x_max":0,"o":"m 158 229 b 272 89 158 142 193 89 b 385 229 350 89 385 142 l 385 972 l 486 972 l 486 235 b 268 -11 486 88 418 -11 b 51 235 119 -11 51 88 l 51 972 l 158 972 "},"ú":{"ha":538,"x_min":0,"x_max":0,"o":"m 411 1174 l 282 1031 l 207 1031 l 304 1174 m 486 235 b 268 -11 486 88 418 -11 b 51 235 119 -11 51 88 l 51 972 l 158 972 l 158 229 b 272 89 158 142 193 89 b 385 229 350 89 385 142 l 385 972 l 486 972 "},"ŭ":{"ha":538,"x_min":0,"x_max":0,"o":"m 415 1164 b 269 1022 414 1076 360 1022 b 125 1164 179 1022 126 1076 l 190 1164 b 269 1090 194 1108 225 1090 b 350 1164 314 1090 346 1108 m 486 235 b 268 -11 486 88 418 -11 b 51 235 119 -11 51 88 l 51 972 l 158 972 l 158 229 b 272 89 158 142 193 89 b 385 229 350 89 385 142 l 385 972 l 486 972 "},"û":{"ha":538,"x_min":0,"x_max":0,"o":"m 197 1029 l 103 1029 l 222 1169 l 318 1169 l 439 1029 l 344 1029 l 269 1111 m 486 235 b 268 -11 486 88 418 -11 b 51 235 119 -11 51 88 l 51 972 l 158 972 l 158 229 b 272 89 158 142 193 89 b 385 229 350 89 385 142 l 385 972 l 486 972 "},"ü":{"ha":538,"x_min":0,"x_max":0,"o":"m 232 1153 l 232 1028 l 136 1028 l 136 1153 m 404 1153 l 404 1028 l 310 1028 l 310 1153 m 486 235 b 268 -11 486 88 418 -11 b 51 235 119 -11 51 88 l 51 972 l 158 972 l 158 229 b 272 89 158 142 193 89 b 385 229 350 89 385 142 l 385 972 l 486 972 "},"ù":{"ha":538,"x_min":0,"x_max":0,"o":"m 240 1169 l 338 1026 l 257 1026 l 128 1169 m 486 235 b 268 -11 486 88 418 -11 b 51 235 119 -11 51 88 l 51 972 l 158 972 l 158 229 b 272 89 158 142 193 89 b 385 229 350 89 385 142 l 385 972 l 486 972 "},"ű":{"ha":538,"x_min":0,"x_max":0,"o":"m 318 1172 l 207 1029 l 139 1029 l 218 1172 m 468 1172 l 356 1029 l 289 1029 l 367 1172 m 486 235 b 268 -11 486 88 418 -11 b 51 235 119 -11 51 88 l 51 972 l 158 972 l 158 229 b 272 89 158 142 193 89 b 385 229 350 89 385 142 l 385 972 l 486 972 "},"ū":{"ha":538,"x_min":0,"x_max":0,"o":"m 414 1119 l 414 1042 l 129 1042 l 129 1119 m 486 235 b 268 -11 486 88 418 -11 b 51 235 119 -11 51 88 l 51 972 l 158 972 l 158 229 b 272 89 158 142 193 89 b 385 229 350 89 385 142 l 385 972 l 486 972 "},"ģ":{"ha":532,"x_min":0,"x_max":0,"o":"m 265 982 b 485 738 415 982 485 885 l 485 654 l 382 654 l 382 743 b 268 883 382 831 347 883 b 154 743 190 883 154 831 l 154 229 b 268 89 154 142 190 89 b 382 229 347 89 382 142 l 382 424 l 282 424 l 282 521 l 485 521 l 485 235 b 265 -10 485 88 415 -10 b 47 235 117 -10 47 88 l 47 738 b 265 982 47 885 117 982 m 254 -168 l 221 -168 l 221 -46 l 311 -46 l 311 -158 l 263 -246 l 224 -246 "},"ķ":{"ha":568,"x_min":0,"x_max":0,"o":"m 221 422 l 164 326 l 164 0 l 56 0 l 56 972 l 164 972 l 164 503 l 422 972 l 532 972 l 286 529 l 540 0 l 429 0 m 274 -168 l 239 -168 l 239 -46 l 331 -46 l 331 -158 l 282 -246 l 242 -246 "},"ļ":{"ha":468,"x_min":0,"x_max":0,"o":"m 56 0 l 56 972 l 164 972 l 164 99 l 442 99 l 442 0 m 246 -168 l 213 -168 l 213 -46 l 303 -46 l 303 -158 l 254 -246 l 215 -246 "},"ņ":{"ha":568,"x_min":0,"x_max":0,"o":"m 151 0 l 54 0 l 54 972 l 192 972 l 417 269 l 417 972 l 513 972 l 513 0 l 400 0 l 151 786 m 272 -168 l 238 -168 l 238 -46 l 328 -46 l 328 -158 l 279 -246 l 240 -246 "},"ŗ":{"ha":547,"x_min":0,"x_max":0,"o":"m 272 972 b 489 750 425 972 489 894 l 489 671 b 368 471 489 564 451 497 b 490 268 457 444 490 372 l 490 117 b 510 0 490 74 492 33 l 400 0 b 382 118 388 28 382 53 l 382 271 b 240 415 382 381 331 415 l 164 415 l 164 0 l 56 0 l 56 972 m 244 514 b 382 647 331 514 382 542 l 382 740 b 269 874 382 828 350 874 l 164 874 l 164 514 m 263 -168 l 228 -168 l 228 -46 l 319 -46 l 319 -158 l 271 -246 l 231 -246 "},"ţ":{"ha":517,"x_min":0,"x_max":0,"o":"m 283 0 l 283 -53 b 376 -131 336 -53 376 -78 b 254 -233 376 -206 317 -235 b 135 -142 194 -233 135 -204 l 135 -131 l 200 -131 l 200 -142 b 253 -182 200 -172 229 -182 b 310 -135 282 -182 310 -168 b 244 -89 310 -99 282 -89 l 232 -89 l 232 0 l 204 0 l 204 874 l 25 874 l 25 972 l 492 972 l 492 874 l 313 874 l 313 0 "},"ș":{"ha":517,"x_min":0,"x_max":0,"o":"m 260 982 b 476 739 407 982 476 886 l 476 713 l 374 713 l 374 744 b 263 883 374 832 340 883 b 151 746 185 883 151 832 b 478 233 151 528 478 507 b 258 -10 478 86 407 -10 b 40 233 110 -10 40 86 l 40 289 l 142 289 l 142 228 b 256 89 142 140 178 89 b 369 228 333 89 369 140 b 44 739 369 444 44 465 b 260 982 44 889 114 982 m 244 -168 l 210 -168 l 210 -46 l 301 -46 l 301 -158 l 253 -246 l 213 -246 "},"ț":{"ha":517,"x_min":0,"x_max":0,"o":"m 204 0 l 204 874 l 25 874 l 25 972 l 492 972 l 492 874 l 313 874 l 313 0 m 247 -168 l 213 -168 l 213 -46 l 304 -46 l 304 -158 l 256 -246 l 215 -246 "},"ḃ":{"ha":544,"x_min":0,"x_max":0,"o":"m 294 1153 l 294 1028 l 200 1028 l 200 1153 m 274 972 b 485 757 425 972 485 900 l 485 711 b 371 518 485 608 456 544 b 501 310 465 492 501 417 l 501 228 b 279 0 501 82 431 0 l 56 0 l 56 972 m 247 560 b 378 689 333 560 378 588 l 378 746 b 271 874 378 832 349 874 l 164 874 l 164 560 m 279 99 b 394 231 358 99 394 140 l 394 317 b 258 461 394 425 351 461 l 164 461 l 164 99 "},"ḋ":{"ha":550,"x_min":0,"x_max":0,"o":"m 304 1153 l 304 1028 l 210 1028 l 210 1153 m 283 972 b 504 731 435 972 504 881 l 504 240 b 283 0 504 92 435 0 l 56 0 l 56 972 m 282 99 b 397 236 360 99 397 147 l 397 736 b 281 874 397 825 360 874 l 164 874 l 164 99 "},"ḟ":{"ha":472,"x_min":0,"x_max":0,"o":"m 297 1153 l 297 1028 l 203 1028 l 203 1153 m 388 519 l 388 421 l 164 421 l 164 0 l 56 0 l 56 972 l 442 972 l 442 874 l 164 874 l 164 519 "},"ṁ":{"ha":726,"x_min":0,"x_max":0,"o":"m 410 1156 l 410 1031 l 315 1031 l 315 1156 m 414 1 l 310 1 l 149 775 l 149 0 l 54 0 l 54 972 l 206 972 l 365 196 l 519 972 l 671 972 l 671 0 l 568 0 l 568 782 "},"ṗ":{"ha":515,"x_min":0,"x_max":0,"o":"m 301 1153 l 301 1028 l 207 1028 l 207 1153 m 268 972 b 486 735 421 972 486 882 l 486 618 b 260 383 486 464 414 383 l 164 383 l 164 0 l 56 0 l 56 972 m 260 481 b 379 611 340 481 379 518 l 379 740 b 268 874 379 829 347 874 l 164 874 l 164 481 "},"ṡ":{"ha":517,"x_min":0,"x_max":0,"o":"m 310 1157 l 310 1032 l 215 1032 l 215 1157 m 260 982 b 476 739 407 982 476 886 l 476 713 l 374 713 l 374 744 b 263 883 374 832 340 883 b 151 746 185 883 151 832 b 478 233 151 528 478 507 b 258 -10 478 86 407 -10 b 40 233 110 -10 40 86 l 40 289 l 142 289 l 142 228 b 256 89 142 140 178 89 b 369 228 333 89 369 140 b 44 739 369 444 44 465 b 260 982 44 889 114 982 "},"ṫ":{"ha":517,"x_min":0,"x_max":0,"o":"m 304 1153 l 304 1028 l 210 1028 l 210 1153 m 203 0 l 203 874 l 24 874 l 24 972 l 490 972 l 490 874 l 311 874 l 311 0 "},"ų":{"ha":538,"x_min":0,"x_max":0,"o":"m 486 235 b 382 7 486 143 467 56 b 328 -96 344 -22 326 -68 b 379 -137 328 -125 353 -137 b 435 -125 406 -137 419 -132 l 435 -182 b 349 -199 407 -194 383 -199 b 244 -121 288 -199 244 -174 b 318 -6 243 -79 272 -37 b 268 -11 303 -10 286 -11 b 51 235 119 -11 51 88 l 51 972 l 158 972 l 158 229 b 272 89 158 142 193 89 b 385 229 350 89 385 142 l 385 972 l 486 972 "},"ů":{"ha":538,"x_min":0,"x_max":0,"o":"m 272 1224 b 375 1122 329 1224 375 1179 b 272 1021 375 1065 329 1021 b 171 1122 215 1021 171 1065 b 272 1224 171 1179 215 1224 m 272 1172 b 222 1122 244 1172 222 1151 b 272 1072 222 1093 244 1072 b 324 1122 300 1072 324 1093 b 272 1172 324 1151 300 1172 m 486 235 b 268 -11 486 88 418 -11 b 51 235 119 -11 51 88 l 51 972 l 158 972 l 158 229 b 272 89 158 142 193 89 b 385 229 350 89 385 142 l 385 972 l 486 972 "},"ũ":{"ha":538,"x_min":0,"x_max":0,"o":"m 440 1114 b 340 1035 418 1058 383 1035 b 214 1075 286 1033 257 1075 b 156 1033 189 1075 171 1064 l 101 1071 b 203 1151 124 1128 160 1150 b 331 1110 258 1151 289 1110 b 386 1151 354 1111 372 1122 m 486 235 b 268 -11 486 88 418 -11 b 51 235 119 -11 51 88 l 51 972 l 158 972 l 158 229 b 272 89 158 142 193 89 b 385 229 350 89 385 142 l 385 972 l 486 972 "},"v":{"ha":581,"x_min":0,"x_max":0,"o":"m 138 972 l 296 126 l 453 972 l 553 972 l 371 0 l 211 0 l 28 972 "},"w":{"ha":810,"x_min":0,"x_max":0,"o":"m 314 0 l 165 0 l 32 972 l 138 972 l 251 144 l 360 971 l 467 971 l 574 143 l 683 972 l 778 972 l 646 0 l 503 0 l 410 660 "},"ẃ":{"ha":810,"x_min":0,"x_max":0,"o":"m 543 1169 l 414 1026 l 338 1026 l 435 1169 m 314 0 l 165 0 l 32 972 l 138 972 l 251 144 l 360 971 l 467 971 l 574 143 l 683 972 l 778 972 l 646 0 l 503 0 l 410 660 "},"ŵ":{"ha":810,"x_min":0,"x_max":0,"o":"m 333 1028 l 239 1028 l 358 1168 l 454 1168 l 575 1028 l 481 1028 l 407 1110 m 314 0 l 165 0 l 32 972 l 138 972 l 251 144 l 360 971 l 467 971 l 574 143 l 683 972 l 778 972 l 646 0 l 503 0 l 410 660 "},"ẅ":{"ha":810,"x_min":0,"x_max":0,"o":"m 368 1154 l 368 1029 l 274 1029 l 274 1154 m 540 1154 l 540 1029 l 446 1029 l 446 1154 m 314 0 l 165 0 l 32 972 l 138 972 l 251 144 l 360 971 l 467 971 l 574 143 l 683 972 l 778 972 l 646 0 l 503 0 l 410 660 "},"ẁ":{"ha":810,"x_min":0,"x_max":0,"o":"m 385 1174 l 481 1031 l 401 1031 l 272 1174 m 314 0 l 165 0 l 32 972 l 138 972 l 251 144 l 360 971 l 467 971 l 574 143 l 683 972 l 778 972 l 646 0 l 503 0 l 410 660 "},"x":{"ha":604,"x_min":0,"x_max":0,"o":"m 297 419 l 135 0 l 32 0 l 228 501 l 44 972 l 157 972 l 307 583 l 458 972 l 560 972 l 378 501 l 572 0 l 458 0 "},"y":{"ha":564,"x_min":0,"x_max":0,"o":"m 228 349 l 22 972 l 135 972 l 286 494 l 439 972 l 542 972 l 335 349 l 335 0 l 228 0 "},"ý":{"ha":564,"x_min":0,"x_max":0,"o":"m 426 1169 l 297 1026 l 222 1026 l 319 1169 m 228 349 l 22 972 l 135 972 l 286 494 l 439 972 l 542 972 l 335 349 l 335 0 l 228 0 "},"ŷ":{"ha":564,"x_min":0,"x_max":0,"o":"m 213 1028 l 118 1028 l 238 1167 l 333 1167 l 454 1028 l 360 1028 l 286 1110 m 228 349 l 22 972 l 135 972 l 286 494 l 439 972 l 542 972 l 335 349 l 335 0 l 228 0 "},"ÿ":{"ha":564,"x_min":0,"x_max":0,"o":"m 246 1151 l 246 1026 l 151 1026 l 151 1151 m 418 1151 l 418 1026 l 324 1026 l 324 1151 m 228 349 l 22 972 l 135 972 l 286 494 l 439 972 l 542 972 l 335 349 l 335 0 l 228 0 "},"ỳ":{"ha":564,"x_min":0,"x_max":0,"o":"m 258 1174 l 354 1031 l 275 1031 l 146 1174 m 228 349 l 22 972 l 135 972 l 286 494 l 439 972 l 542 972 l 335 349 l 335 0 l 228 0 "},"z":{"ha":526,"x_min":0,"x_max":0,"o":"m 482 0 l 40 0 l 40 97 l 374 874 l 56 874 l 56 972 l 485 972 l 485 875 l 150 99 l 482 99 "},"ź":{"ha":526,"x_min":0,"x_max":0,"o":"m 413 1174 l 283 1031 l 208 1031 l 304 1174 m 482 0 l 40 0 l 40 97 l 374 874 l 56 874 l 56 972 l 485 972 l 485 875 l 150 99 l 482 99 "},"ž":{"ha":526,"x_min":0,"x_max":0,"o":"m 196 1169 l 268 1086 l 343 1169 l 438 1169 l 317 1029 l 221 1029 l 101 1169 m 482 0 l 40 0 l 40 97 l 374 874 l 56 874 l 56 972 l 485 972 l 485 875 l 150 99 l 482 99 "},"ż":{"ha":526,"x_min":0,"x_max":0,"o":"m 321 1156 l 321 1031 l 226 1031 l 226 1156 m 482 0 l 40 0 l 40 97 l 374 874 l 56 874 l 56 972 l 485 972 l 485 875 l 150 99 l 482 99 "},"ª":{"ha":382,"x_min":0,"x_max":0,"o":"m 204 979 b 331 826 297 979 331 918 l 331 464 l 271 464 l 267 540 b 158 457 250 489 214 457 b 46 594 83 457 46 507 l 46 600 b 261 767 46 732 149 764 l 261 836 b 201 915 261 885 246 915 b 132 831 153 915 132 885 l 132 806 l 67 806 l 67 826 b 204 979 67 919 108 979 m 261 714 b 117 610 171 710 117 675 l 117 600 b 185 522 117 547 140 522 b 261 604 232 522 256 556 m 331 385 l 331 315 l 47 315 l 47 385 "},"º":{"ha":385,"x_min":0,"x_max":0,"o":"m 192 979 b 335 824 288 979 335 917 l 335 611 b 192 456 335 518 288 456 b 50 611 96 456 50 518 l 50 824 b 192 979 50 917 96 979 m 192 915 b 119 828 142 915 119 883 l 119 607 b 192 519 119 551 142 519 b 264 607 242 519 264 551 l 264 828 b 192 915 264 883 242 915 m 335 386 l 335 317 l 51 317 l 51 386 "},"А":{"ha":586,"x_min":0,"x_max":0,"o":"m 165 196 l 128 0 l 28 0 l 214 972 l 371 972 l 557 0 l 449 0 l 411 196 m 179 289 l 396 289 l 286 850 "},"Б":{"ha":557,"x_min":0,"x_max":0,"o":"m 278 571 b 507 343 429 571 507 499 l 507 236 b 283 0 507 85 436 0 l 57 0 l 57 972 l 467 972 l 467 874 l 164 874 l 164 571 m 283 99 b 399 229 363 99 399 139 l 399 350 b 278 474 399 444 357 474 l 164 474 l 164 99 "},"В":{"ha":544,"x_min":0,"x_max":0,"o":"m 274 972 b 485 757 425 972 485 900 l 485 711 b 371 518 485 608 456 544 b 501 310 465 492 501 417 l 501 228 b 279 0 501 82 431 0 l 56 0 l 56 972 m 247 560 b 378 689 333 560 378 588 l 378 746 b 271 874 378 832 349 874 l 164 874 l 164 560 m 279 99 b 394 231 358 99 394 140 l 394 317 b 258 461 394 425 351 461 l 164 461 l 164 99 "},"Г":{"ha":494,"x_min":0,"x_max":0,"o":"m 164 874 l 164 0 l 57 0 l 57 972 l 444 972 l 444 874 "},"Д":{"ha":679,"x_min":0,"x_max":0,"o":"m 535 -133 l 535 0 l 138 0 l 138 -133 l 33 -133 l 33 96 l 96 96 b 139 238 129 133 136 178 l 176 972 l 567 972 l 567 96 l 640 96 l 640 -133 m 244 239 b 200 96 240 169 231 128 l 457 96 l 457 874 l 276 874 "},"Е":{"ha":500,"x_min":0,"x_max":0,"o":"m 401 542 l 401 444 l 164 444 l 164 99 l 456 99 l 456 0 l 56 0 l 56 972 l 456 972 l 456 874 l 164 874 l 164 542 "},"Ё":{"ha":500,"x_min":0,"x_max":0,"o":"m 215 1154 l 215 1029 l 121 1029 l 121 1154 m 389 1154 l 389 1029 l 293 1029 l 293 1154 m 401 542 l 401 444 l 164 444 l 164 99 l 456 99 l 456 0 l 56 0 l 56 972 l 456 972 l 456 874 l 164 874 l 164 542 "},"Ж":{"ha":851,"x_min":0,"x_max":0,"o":"m 531 458 l 479 367 l 479 0 l 372 0 l 372 367 l 322 460 l 136 0 l 25 0 l 247 560 l 31 972 l 139 972 l 372 525 l 372 972 l 479 972 l 479 525 l 714 972 l 822 972 l 607 563 l 828 0 l 717 0 "},"З":{"ha":538,"x_min":0,"x_max":0,"o":"m 268 982 b 488 738 418 982 488 885 l 488 713 b 368 511 488 613 447 540 b 488 311 450 483 488 408 l 488 235 b 268 -10 488 88 418 -10 b 50 235 119 -10 50 88 l 50 329 l 151 329 l 151 229 b 265 89 151 142 188 89 b 379 238 344 89 379 140 l 379 314 b 254 458 379 408 336 458 l 208 458 l 208 556 l 260 556 b 379 689 332 556 379 604 l 379 733 b 265 883 379 833 344 883 b 151 743 188 883 151 831 l 151 678 l 51 678 l 51 739 b 268 982 51 888 119 982 "},"И":{"ha":568,"x_min":0,"x_max":0,"o":"m 313 451 l 168 0 l 56 0 l 56 972 l 151 972 l 151 247 l 251 554 l 393 972 l 514 972 l 514 0 l 417 0 l 417 774 "},"Й":{"ha":569,"x_min":0,"x_max":0,"o":"m 440 1172 b 290 1036 440 1088 383 1036 b 140 1172 197 1036 143 1088 l 208 1172 b 290 1101 213 1119 244 1101 b 374 1172 336 1101 369 1119 m 315 460 l 168 0 l 56 0 l 56 972 l 151 972 l 151 247 l 243 532 l 393 972 l 514 972 l 514 0 l 417 0 l 417 774 "},"К":{"ha":568,"x_min":0,"x_max":0,"o":"m 221 422 l 164 326 l 164 0 l 56 0 l 56 972 l 164 972 l 164 503 l 422 972 l 532 972 l 286 529 l 540 0 l 429 0 "},"Л":{"ha":617,"x_min":0,"x_max":0,"o":"m 263 874 l 240 242 b 44 -1 235 88 193 0 l 26 -1 l 26 97 b 135 236 117 97 132 143 l 161 972 l 557 972 l 557 0 l 449 0 l 449 874 "},"М":{"ha":726,"x_min":0,"x_max":0,"o":"m 414 1 l 310 1 l 149 775 l 149 0 l 54 0 l 54 972 l 206 972 l 365 196 l 519 972 l 671 972 l 671 0 l 568 0 l 568 782 "},"Н":{"ha":567,"x_min":0,"x_max":0,"o":"m 164 438 l 164 0 l 56 0 l 56 972 l 164 972 l 164 535 l 403 535 l 403 972 l 511 972 l 511 0 l 403 0 l 403 438 "},"О":{"ha":540,"x_min":0,"x_max":0,"o":"m 47 738 b 269 982 47 886 121 982 b 493 738 419 982 493 886 l 493 235 b 269 -10 493 88 419 -10 b 47 235 121 -10 47 88 m 154 229 b 269 89 154 140 192 89 b 385 229 349 89 385 140 l 385 743 b 269 883 385 831 349 883 b 154 743 192 883 154 831 "},"П":{"ha":567,"x_min":0,"x_max":0,"o":"m 164 874 l 164 0 l 56 0 l 56 972 l 511 972 l 511 0 l 403 0 l 403 874 "},"Р":{"ha":515,"x_min":0,"x_max":0,"o":"m 268 972 b 486 735 421 972 486 882 l 486 618 b 260 383 486 464 414 383 l 164 383 l 164 0 l 56 0 l 56 972 m 260 481 b 379 611 340 481 379 518 l 379 740 b 268 874 379 829 347 874 l 164 874 l 164 481 "},"С":{"ha":528,"x_min":0,"x_max":0,"o":"m 265 982 b 485 738 415 982 485 885 l 485 650 l 382 650 l 382 743 b 268 883 382 831 347 883 b 154 743 190 883 154 831 l 154 229 b 268 89 154 142 190 89 b 382 229 347 89 382 142 l 382 356 l 485 356 l 485 235 b 265 -10 485 88 415 -10 b 47 235 117 -10 47 88 l 47 738 b 265 982 47 885 117 982 "},"Т":{"ha":517,"x_min":0,"x_max":0,"o":"m 204 0 l 204 874 l 25 874 l 25 972 l 492 972 l 492 874 l 313 874 l 313 0 "},"У":{"ha":579,"x_min":0,"x_max":0,"o":"m 347 214 b 88 -1 314 68 264 -10 l 88 96 b 226 192 171 92 208 118 l 249 256 l 25 972 l 133 972 l 232 635 l 299 390 l 356 635 l 443 972 l 556 972 "},"Ф":{"ha":790,"x_min":0,"x_max":0,"o":"m 515 858 b 740 615 671 858 740 769 l 740 350 b 515 107 740 196 671 107 l 447 107 l 447 0 l 340 0 l 340 107 l 272 107 b 47 350 117 107 47 196 l 47 615 b 272 858 47 769 117 858 l 340 858 l 340 972 l 447 972 l 447 858 m 272 763 b 154 622 190 763 154 715 l 154 343 b 272 201 154 250 190 201 l 340 201 l 340 763 m 515 201 b 635 343 597 201 635 250 l 635 622 b 515 763 635 715 599 763 l 447 763 l 447 201 "},"Х":{"ha":604,"x_min":0,"x_max":0,"o":"m 297 419 l 135 0 l 32 0 l 228 501 l 44 972 l 157 972 l 307 583 l 458 972 l 560 972 l 378 501 l 572 0 l 458 0 "},"Ч":{"ha":557,"x_min":0,"x_max":0,"o":"m 393 431 b 242 354 358 381 300 354 b 49 585 111 354 49 454 l 49 972 l 157 972 l 157 593 b 276 453 157 511 200 453 b 393 567 342 453 382 493 l 393 972 l 500 972 l 500 0 l 393 0 "},"Ц":{"ha":632,"x_min":0,"x_max":0,"o":"m 489 -131 l 489 0 l 65 0 l 65 972 l 172 972 l 172 99 l 411 99 l 411 972 l 521 972 l 521 96 l 594 96 l 594 -131 "},"Ш":{"ha":807,"x_min":0,"x_max":0,"o":"m 164 972 l 164 99 l 350 99 l 350 972 l 458 972 l 458 99 l 644 99 l 644 972 l 751 972 l 751 0 l 56 0 l 56 972 "},"Щ":{"ha":864,"x_min":0,"x_max":0,"o":"m 722 -131 l 722 0 l 56 0 l 56 972 l 164 972 l 164 99 l 350 99 l 350 972 l 457 972 l 457 99 l 644 99 l 644 972 l 751 972 l 751 96 l 826 96 l 826 -131 "},"Я":{"ha":547,"x_min":0,"x_max":0,"o":"m 307 415 b 165 271 217 415 165 381 l 165 118 b 147 0 165 53 160 28 l 38 0 b 57 117 54 33 57 74 l 57 268 b 178 471 57 372 90 444 b 58 671 96 497 58 564 l 58 750 b 275 972 58 894 122 972 l 492 972 l 492 0 l 383 0 l 383 415 m 278 874 b 165 740 197 874 165 828 l 165 647 b 301 514 165 542 217 514 l 383 514 l 383 874 "},"Ь":{"ha":529,"x_min":0,"x_max":0,"o":"m 260 589 b 486 354 414 589 486 508 l 486 238 b 268 0 486 90 419 0 l 56 0 l 56 972 l 164 972 l 164 589 m 268 99 b 379 232 347 99 379 143 l 379 361 b 260 492 379 456 340 492 l 164 492 l 164 99 "},"Ъ":{"ha":608,"x_min":0,"x_max":0,"o":"m 340 589 b 567 354 493 589 567 508 l 567 238 b 349 0 567 90 500 0 l 136 0 l 136 875 l 14 875 l 14 972 l 243 972 l 243 589 m 349 99 b 458 232 428 99 458 143 l 458 361 b 340 492 458 456 421 492 l 243 492 l 243 99 "},"Ы":{"ha":739,"x_min":0,"x_max":0,"o":"m 260 589 b 486 354 414 589 486 508 l 486 238 b 268 0 486 90 419 0 l 56 0 l 56 972 l 164 972 l 164 589 m 683 972 l 683 0 l 576 0 l 576 972 m 268 99 b 379 232 347 99 379 143 l 379 361 b 260 492 379 456 340 492 l 164 492 l 164 99 "},"Э":{"ha":528,"x_min":0,"x_max":0,"o":"m 261 982 b 479 738 410 982 479 885 l 479 235 b 261 -10 479 88 410 -10 b 43 235 113 -10 43 88 l 43 340 l 144 340 l 144 229 b 258 89 144 142 181 89 b 372 229 336 89 372 142 l 372 454 l 203 454 l 203 551 l 372 551 l 372 743 b 258 883 372 831 336 883 b 144 743 181 883 144 831 l 144 665 l 44 665 l 44 738 b 261 982 44 885 113 982 "},"Ю":{"ha":799,"x_min":0,"x_max":0,"o":"m 528 982 b 750 738 676 982 750 886 l 750 235 b 528 -10 750 88 676 -10 b 304 235 378 -10 304 88 l 304 438 l 164 438 l 164 0 l 56 0 l 56 972 l 164 972 l 164 535 l 304 535 l 304 738 b 528 982 304 886 378 982 m 528 883 b 413 743 449 883 413 832 l 413 229 b 528 89 413 142 449 89 b 643 229 606 89 643 142 l 643 743 b 528 883 643 832 606 883 "},"а":{"ha":586,"x_min":0,"x_max":0,"o":"m 165 196 l 128 0 l 28 0 l 214 972 l 371 972 l 557 0 l 449 0 l 411 196 m 179 289 l 396 289 l 286 850 "},"б":{"ha":557,"x_min":0,"x_max":0,"o":"m 278 571 b 507 343 429 571 507 499 l 507 236 b 283 0 507 85 436 0 l 57 0 l 57 972 l 467 972 l 467 874 l 164 874 l 164 571 m 283 99 b 399 229 363 99 399 139 l 399 350 b 278 474 399 444 357 474 l 164 474 l 164 99 "},"в":{"ha":544,"x_min":0,"x_max":0,"o":"m 274 972 b 485 757 425 972 485 900 l 485 711 b 371 518 485 608 456 544 b 501 310 465 492 501 417 l 501 228 b 279 0 501 82 431 0 l 56 0 l 56 972 m 247 560 b 378 689 333 560 378 588 l 378 746 b 271 874 378 832 349 874 l 164 874 l 164 560 m 279 99 b 394 231 358 99 394 140 l 394 317 b 258 461 394 425 351 461 l 164 461 l 164 99 "},"г":{"ha":494,"x_min":0,"x_max":0,"o":"m 164 874 l 164 0 l 57 0 l 57 972 l 444 972 l 444 874 "},"д":{"ha":679,"x_min":0,"x_max":0,"o":"m 535 -133 l 535 0 l 138 0 l 138 -133 l 33 -133 l 33 96 l 96 96 b 139 238 129 133 136 178 l 176 972 l 567 972 l 567 96 l 640 96 l 640 -133 m 244 239 b 200 96 240 169 231 128 l 457 96 l 457 874 l 276 874 "},"е":{"ha":500,"x_min":0,"x_max":0,"o":"m 401 542 l 401 444 l 164 444 l 164 99 l 456 99 l 456 0 l 56 0 l 56 972 l 456 972 l 456 874 l 164 874 l 164 542 "},"ё":{"ha":500,"x_min":0,"x_max":0,"o":"m 215 1154 l 215 1029 l 121 1029 l 121 1154 m 389 1154 l 389 1029 l 293 1029 l 293 1154 m 401 542 l 401 444 l 164 444 l 164 99 l 456 99 l 456 0 l 56 0 l 56 972 l 456 972 l 456 874 l 164 874 l 164 542 "},"ж":{"ha":851,"x_min":0,"x_max":0,"o":"m 531 458 l 479 367 l 479 0 l 372 0 l 372 367 l 322 460 l 136 0 l 25 0 l 247 560 l 31 972 l 139 972 l 372 525 l 372 972 l 479 972 l 479 525 l 714 972 l 822 972 l 607 563 l 828 0 l 717 0 "},"з":{"ha":538,"x_min":0,"x_max":0,"o":"m 268 982 b 488 738 418 982 488 885 l 488 713 b 368 511 488 613 447 540 b 488 311 450 483 488 408 l 488 235 b 268 -10 488 88 418 -10 b 50 235 119 -10 50 88 l 50 329 l 151 329 l 151 229 b 265 89 151 142 188 89 b 379 238 344 89 379 140 l 379 314 b 254 458 379 408 336 458 l 208 458 l 208 556 l 260 556 b 379 689 332 556 379 604 l 379 733 b 265 883 379 833 344 883 b 151 743 188 883 151 831 l 151 678 l 51 678 l 51 739 b 268 982 51 888 119 982 "},"и":{"ha":568,"x_min":0,"x_max":0,"o":"m 311 449 l 168 0 l 56 0 l 56 972 l 151 972 l 151 247 l 238 515 l 393 972 l 514 972 l 514 0 l 417 0 l 417 774 "},"й":{"ha":569,"x_min":0,"x_max":0,"o":"m 440 1171 b 290 1035 440 1086 383 1035 b 140 1171 197 1035 143 1086 l 208 1171 b 290 1100 213 1117 244 1100 b 374 1171 336 1100 369 1117 m 319 468 l 168 0 l 56 0 l 56 972 l 151 972 l 151 247 l 242 528 l 393 972 l 514 972 l 514 0 l 417 0 l 417 774 "},"к":{"ha":568,"x_min":0,"x_max":0,"o":"m 221 422 l 164 326 l 164 0 l 56 0 l 56 972 l 164 972 l 164 503 l 422 972 l 532 972 l 286 529 l 540 0 l 429 0 "},"л":{"ha":617,"x_min":0,"x_max":0,"o":"m 263 874 l 240 242 b 44 -1 235 88 193 0 l 26 -1 l 26 97 b 135 236 117 97 132 143 l 161 972 l 557 972 l 557 0 l 449 0 l 449 874 "},"м":{"ha":726,"x_min":0,"x_max":0,"o":"m 414 1 l 310 1 l 149 775 l 149 0 l 54 0 l 54 972 l 206 972 l 365 196 l 519 972 l 671 972 l 671 0 l 568 0 l 568 782 "},"н":{"ha":567,"x_min":0,"x_max":0,"o":"m 164 438 l 164 0 l 56 0 l 56 972 l 164 972 l 164 535 l 403 535 l 403 972 l 511 972 l 511 0 l 403 0 l 403 438 "},"о":{"ha":540,"x_min":0,"x_max":0,"o":"m 47 738 b 269 982 47 886 121 982 b 493 738 419 982 493 886 l 493 235 b 269 -10 493 88 419 -10 b 47 235 121 -10 47 88 m 154 229 b 269 89 154 140 192 89 b 385 229 349 89 385 140 l 385 743 b 269 883 385 831 349 883 b 154 743 192 883 154 831 "},"п":{"ha":567,"x_min":0,"x_max":0,"o":"m 164 874 l 164 0 l 56 0 l 56 972 l 511 972 l 511 0 l 403 0 l 403 874 "},"р":{"ha":515,"x_min":0,"x_max":0,"o":"m 268 972 b 486 735 421 972 486 882 l 486 618 b 260 383 486 464 414 383 l 164 383 l 164 0 l 56 0 l 56 972 m 260 481 b 379 611 340 481 379 518 l 379 740 b 268 874 379 829 347 874 l 164 874 l 164 481 "},"с":{"ha":528,"x_min":0,"x_max":0,"o":"m 265 982 b 485 738 415 982 485 885 l 485 650 l 382 650 l 382 743 b 268 883 382 831 347 883 b 154 743 190 883 154 831 l 154 229 b 268 89 154 142 190 89 b 382 229 347 89 382 142 l 382 356 l 485 356 l 485 235 b 265 -10 485 88 415 -10 b 47 235 117 -10 47 88 l 47 738 b 265 982 47 885 117 982 "},"т":{"ha":517,"x_min":0,"x_max":0,"o":"m 204 0 l 204 874 l 25 874 l 25 972 l 492 972 l 492 874 l 313 874 l 313 0 "},"у":{"ha":579,"x_min":0,"x_max":0,"o":"m 347 214 b 88 -1 314 68 264 -10 l 88 96 b 226 192 171 92 208 118 l 249 256 l 25 972 l 133 972 l 232 635 l 299 390 l 356 635 l 443 972 l 556 972 "},"ф":{"ha":790,"x_min":0,"x_max":0,"o":"m 515 858 b 740 615 671 858 740 769 l 740 350 b 515 107 740 196 671 107 l 447 107 l 447 0 l 340 0 l 340 107 l 272 107 b 47 350 117 107 47 196 l 47 615 b 272 858 47 769 117 858 l 340 858 l 340 972 l 447 972 l 447 858 m 272 763 b 154 622 190 763 154 715 l 154 343 b 272 201 154 250 190 201 l 340 201 l 340 763 m 515 201 b 635 343 597 201 635 250 l 635 622 b 515 763 635 715 599 763 l 447 763 l 447 201 "},"х":{"ha":604,"x_min":0,"x_max":0,"o":"m 297 419 l 135 0 l 32 0 l 228 501 l 44 972 l 157 972 l 307 583 l 458 972 l 560 972 l 378 501 l 572 0 l 458 0 "},"ч":{"ha":557,"x_min":0,"x_max":0,"o":"m 393 431 b 242 354 358 381 300 354 b 49 585 111 354 49 454 l 49 972 l 157 972 l 157 593 b 276 453 157 511 200 453 b 393 567 342 453 382 493 l 393 972 l 500 972 l 500 0 l 393 0 "},"ц":{"ha":632,"x_min":0,"x_max":0,"o":"m 489 -131 l 489 0 l 65 0 l 65 972 l 172 972 l 172 99 l 411 99 l 411 972 l 521 972 l 521 96 l 594 96 l 594 -131 "},"ш":{"ha":807,"x_min":0,"x_max":0,"o":"m 164 972 l 164 99 l 350 99 l 350 972 l 458 972 l 458 99 l 644 99 l 644 972 l 751 972 l 751 0 l 56 0 l 56 972 "},"щ":{"ha":864,"x_min":0,"x_max":0,"o":"m 722 -131 l 722 0 l 56 0 l 56 972 l 164 972 l 164 99 l 350 99 l 350 972 l 457 972 l 457 99 l 644 99 l 644 972 l 751 972 l 751 96 l 826 96 l 826 -131 "},"ь":{"ha":529,"x_min":0,"x_max":0,"o":"m 260 589 b 486 354 414 589 486 508 l 486 238 b 268 0 486 90 419 0 l 56 0 l 56 972 l 164 972 l 164 589 m 268 99 b 379 232 347 99 379 143 l 379 361 b 260 492 379 456 340 492 l 164 492 l 164 99 "},"ъ":{"ha":608,"x_min":0,"x_max":0,"o":"m 340 589 b 567 354 493 589 567 508 l 567 238 b 349 0 567 90 500 0 l 136 0 l 136 875 l 14 875 l 14 972 l 243 972 l 243 589 m 349 99 b 458 232 428 99 458 143 l 458 361 b 340 492 458 456 421 492 l 243 492 l 243 99 "},"ы":{"ha":739,"x_min":0,"x_max":0,"o":"m 260 589 b 486 354 414 589 486 508 l 486 238 b 268 0 486 90 419 0 l 56 0 l 56 972 l 164 972 l 164 589 m 683 972 l 683 0 l 576 0 l 576 972 m 268 99 b 379 232 347 99 379 143 l 379 361 b 260 492 379 456 340 492 l 164 492 l 164 99 "},"э":{"ha":528,"x_min":0,"x_max":0,"o":"m 261 982 b 479 738 410 982 479 885 l 479 235 b 261 -10 479 88 410 -10 b 43 235 113 -10 43 88 l 43 340 l 144 340 l 144 229 b 258 89 144 142 181 89 b 372 229 336 89 372 142 l 372 454 l 203 454 l 203 551 l 372 551 l 372 743 b 258 883 372 831 336 883 b 144 743 181 883 144 831 l 144 665 l 44 665 l 44 738 b 261 982 44 885 113 982 "},"ю":{"ha":799,"x_min":0,"x_max":0,"o":"m 528 982 b 750 738 676 982 750 886 l 750 235 b 528 -10 750 88 676 -10 b 304 235 378 -10 304 88 l 304 438 l 164 438 l 164 0 l 56 0 l 56 972 l 164 972 l 164 535 l 304 535 l 304 738 b 528 982 304 886 378 982 m 528 883 b 413 743 449 883 413 832 l 413 229 b 528 89 413 142 449 89 b 643 229 606 89 643 142 l 643 743 b 528 883 643 832 606 883 "},"я":{"ha":547,"x_min":0,"x_max":0,"o":"m 307 415 b 165 271 217 415 165 381 l 165 118 b 147 0 165 53 160 28 l 38 0 b 57 117 54 33 57 74 l 57 268 b 178 471 57 372 90 444 b 58 671 96 497 58 564 l 58 750 b 275 972 58 894 122 972 l 492 972 l 492 0 l 383 0 l 383 415 m 278 874 b 165 740 197 874 165 828 l 165 647 b 301 514 165 542 217 514 l 383 514 l 383 874 "},"⁄":{"ha":228,"x_min":0,"x_max":0,"o":"m 339 972 l -44 0 l -110 0 l 274 972 "},"½":{"ha":832,"x_min":0,"x_max":0,"o":"m 164 865 b 79 840 140 851 111 843 l 79 892 b 185 972 146 893 168 929 l 233 972 l 233 356 l 164 356 m 610 972 l 226 0 l 161 0 l 544 972 m 647 625 b 786 468 743 625 786 563 b 576 74 786 282 579 218 l 576 64 l 779 64 l 779 0 l 507 0 l 507 53 b 717 467 507 251 717 292 b 644 561 717 528 694 561 b 574 471 596 561 574 526 l 574 418 l 507 418 l 507 467 b 647 625 507 561 550 625 "},"⅓":{"ha":828,"x_min":0,"x_max":0,"o":"m 164 865 b 79 840 140 851 111 843 l 79 892 b 185 972 146 893 168 929 l 233 972 l 233 356 l 164 356 m 610 972 l 226 0 l 161 0 l 544 972 m 636 624 b 776 467 732 624 776 563 l 776 451 b 703 325 776 389 753 344 b 776 197 754 306 776 258 l 776 150 b 636 -7 776 54 732 -7 b 497 150 540 -7 497 54 l 497 192 l 564 192 l 564 144 b 635 57 564 90 586 57 b 706 151 683 57 706 89 l 706 199 b 629 289 706 258 681 289 l 592 289 l 592 353 l 632 353 b 706 438 678 353 707 385 l 706 465 b 635 560 706 528 683 560 b 564 472 586 560 564 526 l 564 440 l 497 440 l 497 467 b 636 624 497 563 540 624 "},"⅔":{"ha":858,"x_min":0,"x_max":0,"o":"m 197 979 b 336 822 293 979 336 917 b 126 425 336 635 125 568 l 126 418 l 329 418 l 329 354 l 57 354 l 57 407 b 267 821 57 607 267 647 b 194 915 267 883 244 915 b 124 825 146 915 124 881 l 124 772 l 57 772 l 57 822 b 197 979 57 917 100 979 m 278 0 l 213 0 l 596 972 l 661 972 m 668 624 b 807 467 763 624 807 563 l 807 451 b 733 325 807 389 783 344 b 807 197 785 306 807 258 l 807 150 b 668 -7 807 54 763 -7 b 528 150 572 -7 528 54 l 528 192 l 594 192 l 594 144 b 665 57 594 90 617 57 b 736 151 714 57 736 89 l 736 199 b 660 289 736 258 711 289 l 622 289 l 622 353 l 663 353 b 736 438 708 353 738 385 l 736 465 b 665 560 736 528 714 560 b 594 472 617 560 594 526 l 594 440 l 528 440 l 528 467 b 668 624 528 563 572 624 "},"¼":{"ha":801,"x_min":0,"x_max":0,"o":"m 164 865 b 79 840 140 851 111 843 l 79 892 b 185 972 146 893 168 929 l 233 972 l 233 356 l 164 356 m 254 0 l 189 0 l 572 972 l 638 972 m 717 0 l 647 0 l 647 122 l 449 122 l 449 188 l 639 617 l 717 617 l 717 188 l 764 188 l 764 122 l 717 122 m 647 188 l 647 482 l 513 188 "},"¾":{"ha":836,"x_min":0,"x_max":0,"o":"m 192 979 b 331 822 286 979 331 918 l 331 807 b 258 681 331 744 307 700 b 331 553 310 661 331 614 l 331 506 b 192 349 331 410 286 349 b 51 506 96 349 51 410 l 51 547 l 118 547 l 118 500 b 189 413 118 446 140 413 b 261 507 239 413 261 444 l 261 554 b 185 644 261 614 235 644 l 147 644 l 147 708 l 188 708 b 261 793 232 708 261 740 l 261 821 b 189 915 261 883 239 915 b 118 828 140 915 118 882 l 118 796 l 51 796 l 51 822 b 192 979 51 918 96 979 m 617 972 l 682 972 l 299 0 l 233 0 m 682 122 l 483 122 l 483 188 l 674 617 l 751 617 l 751 188 l 799 188 l 799 122 l 751 122 l 751 0 l 682 0 m 547 188 l 682 188 l 682 482 "},"⅛":{"ha":835,"x_min":0,"x_max":0,"o":"m 164 865 b 79 840 140 851 111 843 l 79 892 b 185 972 146 893 168 929 l 233 972 l 233 356 l 164 356 m 161 0 l 544 972 l 610 972 l 226 0 m 642 624 b 788 471 736 624 788 565 l 788 450 b 721 324 788 390 767 344 b 788 193 768 301 788 253 l 788 147 b 642 -7 788 53 738 -7 b 494 147 544 -7 494 53 l 494 193 b 563 324 494 253 514 301 b 494 450 515 344 494 390 l 494 471 b 642 624 494 565 546 624 m 642 560 b 565 468 593 560 565 532 l 565 439 b 642 353 565 379 593 353 b 718 439 689 353 718 379 l 718 468 b 642 560 718 532 689 560 m 642 289 b 565 201 590 289 565 261 l 565 149 b 642 57 565 86 593 57 b 718 149 690 57 718 86 l 718 201 b 642 289 718 261 692 289 "},"⅜":{"ha":869,"x_min":0,"x_max":0,"o":"m 192 979 b 331 822 286 979 331 918 l 331 807 b 258 681 331 744 307 700 b 331 553 310 661 331 614 l 331 506 b 192 349 331 410 286 349 b 51 506 96 349 51 410 l 51 547 l 118 547 l 118 500 b 189 413 118 446 140 413 b 261 507 239 413 261 444 l 261 554 b 185 644 261 614 235 644 l 147 644 l 147 708 l 188 708 b 261 793 232 708 261 740 l 261 821 b 189 915 261 883 239 915 b 118 828 140 915 118 882 l 118 796 l 51 796 l 51 822 b 192 979 51 918 96 979 m 657 972 l 274 0 l 208 0 l 592 972 m 676 624 b 822 471 772 624 822 565 l 822 450 b 756 324 822 390 803 344 b 822 193 804 301 822 253 l 822 147 b 676 -7 822 53 772 -7 b 531 147 581 -7 531 53 l 531 193 b 597 324 531 253 549 301 b 531 450 550 344 531 390 l 531 471 b 676 624 531 565 581 624 m 676 560 b 600 468 629 560 600 532 l 600 439 b 676 353 600 379 628 353 b 753 439 724 353 753 379 l 753 468 b 676 560 753 532 724 560 m 676 289 b 600 201 625 289 600 261 l 600 149 b 676 57 600 86 628 57 b 753 149 725 57 753 86 l 753 201 b 676 289 753 261 728 289 "},"⅝":{"ha":869,"x_min":0,"x_max":0,"o":"m 590 972 l 656 972 l 272 0 l 207 0 m 126 722 b 218 771 146 754 178 771 b 332 624 296 771 332 713 l 332 503 b 192 346 332 408 288 346 b 53 503 97 346 53 408 l 53 544 l 119 544 l 119 499 b 190 411 119 443 142 411 b 261 499 239 411 261 443 l 261 618 b 190 706 261 672 239 706 b 122 640 156 706 126 685 l 122 626 l 56 626 l 74 971 l 317 971 l 317 907 l 135 907 m 675 624 b 822 471 771 624 822 565 l 822 450 b 754 324 822 390 801 344 b 822 193 803 301 822 253 l 822 147 b 675 -7 822 53 772 -7 b 529 147 579 -7 529 53 l 529 193 b 596 324 529 253 549 301 b 529 450 550 344 529 390 l 529 471 b 675 624 529 565 581 624 m 675 560 b 599 468 628 560 599 532 l 599 439 b 675 353 599 379 626 353 b 751 439 722 353 751 379 l 751 468 b 675 560 751 532 724 560 m 675 289 b 599 201 625 289 599 261 l 599 149 b 675 57 599 86 626 57 b 751 149 724 57 751 86 l 751 201 b 675 289 751 261 726 289 "},"⅞":{"ha":825,"x_min":0,"x_max":0,"o":"m 260 908 l 51 908 l 51 972 l 332 972 l 332 911 l 172 356 l 103 356 m 200 0 l 135 0 l 518 972 l 583 972 m 631 624 b 778 471 726 624 778 565 l 778 450 b 710 324 778 390 757 344 b 778 193 758 301 778 253 l 778 147 b 631 -7 778 53 728 -7 b 485 147 535 -7 485 53 l 485 193 b 551 324 485 253 503 301 b 485 450 504 344 485 390 l 485 471 b 631 624 485 565 535 624 m 631 560 b 554 468 583 560 554 532 l 554 439 b 631 353 554 379 582 353 b 707 439 678 353 707 379 l 707 468 b 631 560 707 532 679 560 m 631 289 b 554 201 579 289 554 261 l 554 149 b 631 57 554 86 582 57 b 707 149 679 57 707 86 l 707 201 b 631 289 707 261 682 289 "},"₀":{"ha":385,"x_min":0,"x_max":0,"o":"m 50 376 b 192 533 50 472 96 533 b 335 376 288 533 335 472 l 335 60 b 192 -97 335 -36 288 -97 b 50 60 96 -97 50 -36 m 119 54 b 192 -33 119 0 142 -33 b 264 54 242 -33 264 0 l 264 382 b 192 469 264 436 242 469 b 119 382 142 469 119 436 "},"₁":{"ha":263,"x_min":0,"x_max":0,"o":"m 126 419 b 42 394 103 406 74 397 l 42 446 b 147 526 108 447 131 483 l 196 526 l 196 -90 l 126 -90 "},"₂":{"ha":382,"x_min":0,"x_max":0,"o":"m 197 535 b 336 378 293 535 336 472 b 126 -21 336 190 124 122 l 126 -26 l 329 -26 l 329 -90 l 57 -90 l 57 -37 b 267 376 57 161 267 201 b 194 471 267 438 244 471 b 124 381 146 471 124 436 l 124 328 l 57 328 l 57 376 b 197 535 57 471 100 535 "},"₃":{"ha":382,"x_min":0,"x_max":0,"o":"m 192 533 b 331 376 286 533 331 472 l 331 361 b 258 235 331 299 307 254 b 331 107 308 215 331 168 l 331 60 b 192 -97 331 -36 286 -97 b 51 60 96 -97 51 -36 l 51 101 l 118 101 l 118 54 b 189 -33 118 0 140 -33 b 261 61 239 -33 261 -1 l 261 108 b 185 199 261 168 235 199 l 147 199 l 147 263 l 188 263 b 261 347 232 263 261 294 l 261 375 b 189 469 261 438 239 469 b 118 382 140 469 118 436 l 118 350 l 51 350 l 51 376 b 192 533 51 472 96 533 "},"₄":{"ha":393,"x_min":0,"x_max":0,"o":"m 308 31 l 308 -93 l 239 -93 l 239 31 l 40 31 l 40 94 l 232 524 l 308 524 l 308 94 l 357 94 l 357 31 m 104 94 l 239 94 l 239 389 "},"₅":{"ha":382,"x_min":0,"x_max":0,"o":"m 119 56 b 190 -32 119 0 142 -32 b 261 56 239 -32 261 0 l 261 175 b 190 263 261 229 239 263 b 122 197 156 263 126 242 l 122 183 l 56 183 l 74 528 l 317 528 l 317 464 l 135 464 l 126 278 b 218 326 146 310 178 326 b 332 181 296 326 332 268 l 332 58 b 192 -97 332 -35 288 -97 b 53 58 97 -97 53 -35 l 53 101 l 119 101 "},"₆":{"ha":385,"x_min":0,"x_max":0,"o":"m 194 533 b 335 378 290 533 335 472 l 335 367 l 268 367 l 268 382 b 197 469 268 438 246 469 b 122 371 144 469 122 438 l 122 238 b 221 300 140 278 174 300 b 336 153 300 300 336 242 l 336 60 b 194 -97 336 -35 290 -97 b 51 60 99 -97 51 -35 l 51 374 b 194 533 51 471 96 533 m 194 236 b 122 147 144 236 122 203 l 122 54 b 194 -33 122 -1 144 -33 b 267 54 243 -33 267 -1 l 267 147 b 194 236 267 203 243 236 "},"₇":{"ha":382,"x_min":0,"x_max":0,"o":"m 260 465 l 51 465 l 51 529 l 332 529 l 332 468 l 172 -87 l 103 -87 "},"₈":{"ha":388,"x_min":0,"x_max":0,"o":"m 193 533 b 340 381 289 533 340 475 l 340 360 b 272 233 340 300 319 254 b 340 103 321 211 340 163 l 340 57 b 193 -97 340 -37 290 -97 b 47 57 97 -97 47 -37 l 47 103 b 114 233 47 163 67 211 b 47 360 68 254 47 300 l 47 381 b 193 533 47 475 99 533 m 193 469 b 117 378 146 469 117 442 l 117 349 b 193 263 117 289 144 263 b 269 349 240 263 269 289 l 269 378 b 193 469 269 442 242 469 m 193 199 b 117 111 143 199 117 171 l 117 58 b 193 -33 117 -4 144 -33 b 269 58 242 -33 269 -4 l 269 111 b 193 199 269 171 244 199 "},"₉":{"ha":385,"x_min":0,"x_max":0,"o":"m 190 533 b 332 376 286 533 332 471 l 332 63 b 189 -97 332 -35 289 -97 b 49 58 94 -97 49 -36 l 49 69 l 115 69 l 115 54 b 188 -33 115 -1 139 -33 b 263 65 239 -33 263 -1 l 263 199 b 163 136 244 158 211 136 b 49 283 85 136 49 194 l 49 376 b 190 533 49 471 94 533 m 190 469 b 118 382 142 469 118 438 l 118 289 b 190 200 118 233 142 200 b 263 289 239 200 263 233 l 263 382 b 190 469 263 438 239 469 "},"⁰":{"ha":385,"x_min":0,"x_max":0,"o":"m 50 954 b 192 1111 50 1050 96 1111 b 335 954 288 1111 335 1050 l 335 638 b 192 481 335 542 288 481 b 50 638 96 481 50 542 m 119 632 b 192 544 119 578 142 544 b 264 632 242 544 264 578 l 264 960 b 192 1047 264 1014 242 1047 b 119 960 142 1047 119 1014 "},"¹":{"ha":263,"x_min":0,"x_max":0,"o":"m 42 1024 b 147 1104 108 1025 131 1061 l 196 1104 l 196 488 l 126 488 l 126 997 b 42 972 103 983 74 975 "},"²":{"ha":382,"x_min":0,"x_max":0,"o":"m 197 1113 b 336 956 293 1113 336 1050 b 126 560 336 768 129 704 l 126 551 l 329 551 l 329 488 l 57 488 l 57 540 b 267 954 57 739 267 779 b 194 1049 267 1015 244 1049 b 124 958 146 1049 124 1014 l 124 906 l 57 906 l 57 954 b 197 1113 57 1049 100 1113 "},"³":{"ha":382,"x_min":0,"x_max":0,"o":"m 192 1111 b 331 954 286 1111 331 1050 l 331 939 b 258 813 331 876 307 832 b 331 685 310 793 331 746 l 331 638 b 192 481 331 542 286 481 b 51 638 96 481 51 542 l 51 679 l 118 679 l 118 632 b 189 544 118 578 140 544 b 261 639 239 544 261 576 l 261 686 b 185 776 261 746 235 776 l 147 776 l 147 840 l 188 840 b 261 925 232 840 261 872 l 261 953 b 189 1047 261 1015 239 1047 b 118 960 140 1047 118 1014 l 118 928 l 51 928 l 51 954 b 192 1111 51 1050 96 1111 "},"⁴":{"ha":393,"x_min":0,"x_max":0,"o":"m 308 610 l 308 488 l 239 488 l 239 610 l 40 610 l 40 675 l 232 1104 l 308 1104 l 308 675 l 357 675 l 357 610 m 104 675 l 239 675 l 239 969 "},"⁵":{"ha":382,"x_min":0,"x_max":0,"o":"m 119 631 b 190 543 119 575 142 543 b 261 631 239 543 261 575 l 261 750 b 190 838 261 804 239 838 b 122 772 156 838 126 817 l 122 758 l 56 758 l 74 1103 l 317 1103 l 317 1039 l 135 1039 l 126 854 b 218 903 146 886 178 903 b 332 756 296 903 332 844 l 332 635 b 192 478 332 540 288 478 b 53 635 97 478 53 540 l 53 676 l 119 676 "},"⁶":{"ha":385,"x_min":0,"x_max":0,"o":"m 194 1111 b 335 956 290 1111 335 1050 l 335 944 l 268 944 l 268 960 b 197 1047 268 1015 246 1047 b 122 949 144 1047 122 1015 l 122 815 b 221 878 140 856 174 878 b 336 731 300 878 336 819 l 336 638 b 194 481 336 543 290 481 b 51 638 99 481 51 543 l 51 951 b 194 1111 51 1049 96 1111 m 194 814 b 122 725 144 814 122 781 l 122 632 b 194 544 122 576 144 544 b 267 632 243 544 267 576 l 267 725 b 194 814 267 781 243 814 "},"⁷":{"ha":382,"x_min":0,"x_max":0,"o":"m 260 1040 l 51 1040 l 51 1104 l 332 1104 l 332 1043 l 172 488 l 103 488 "},"⁸":{"ha":388,"x_min":0,"x_max":0,"o":"m 193 1111 b 340 958 289 1111 340 1053 l 340 938 b 272 811 340 878 319 832 b 340 681 321 789 340 740 l 340 635 b 193 481 340 540 290 481 b 47 635 97 481 47 540 l 47 681 b 114 811 47 740 67 789 b 47 938 68 832 47 878 l 47 958 b 193 1111 47 1053 99 1111 m 193 1047 b 117 956 146 1047 117 1019 l 117 926 b 193 840 117 867 144 840 b 269 926 240 840 269 867 l 269 956 b 193 1047 269 1019 242 1047 m 193 776 b 117 689 143 776 117 749 l 117 636 b 193 544 117 574 144 544 b 269 636 242 544 269 574 l 269 689 b 193 776 269 749 244 776 "},"⁹":{"ha":385,"x_min":0,"x_max":0,"o":"m 190 1111 b 332 954 286 1111 332 1049 l 332 640 b 189 481 332 543 289 481 b 49 636 94 481 49 542 l 49 647 l 115 647 l 115 632 b 188 544 115 576 139 544 b 263 643 239 544 263 576 l 263 776 b 163 714 244 736 211 714 b 49 861 85 714 49 772 l 49 954 b 190 1111 49 1049 94 1111 m 190 1047 b 118 960 142 1047 118 1015 l 118 867 b 190 778 118 811 142 778 b 263 867 239 778 263 811 l 263 960 b 190 1047 263 1015 239 1047 "},"*":{"ha":549,"x_min":0,"x_max":0,"o":"m 307 708 l 454 546 l 383 493 l 274 686 l 165 493 l 94 546 l 240 708 l 25 753 l 51 838 l 254 749 l 229 968 l 318 968 l 294 749 l 497 836 l 524 751 "},"\\":{"ha":522,"x_min":0,"x_max":0,"o":"m 117 972 l 500 0 l 406 0 l 22 972 "},"•":{"ha":456,"x_min":0,"x_max":0,"o":"m 228 632 b 374 486 308 632 374 567 b 228 340 374 406 308 340 b 82 486 147 340 82 406 b 228 632 82 567 147 632 "},":":{"ha":215,"x_min":0,"x_max":0,"o":"m 160 664 l 160 529 l 56 529 l 56 664 m 160 135 l 160 0 l 56 0 l 56 135 "},",":{"ha":222,"x_min":0,"x_max":0,"o":"m 103 0 l 63 0 l 63 135 l 167 135 l 167 10 l 113 -122 l 68 -122 "},"…":{"ha":526,"x_min":0,"x_max":0,"o":"m 160 135 l 160 0 l 56 0 l 56 135 m 315 135 l 315 0 l 211 0 l 211 135 m 471 135 l 471 0 l 367 0 l 367 135 "},"!":{"ha":219,"x_min":0,"x_max":0,"o":"m 56 515 l 56 972 l 164 972 l 164 515 l 150 215 l 69 215 m 161 135 l 161 0 l 57 0 l 57 135 "},"¡":{"ha":219,"x_min":0,"x_max":0,"o":"m 161 972 l 161 839 l 57 839 l 57 972 m 56 429 l 69 757 l 150 757 l 164 429 l 164 0 l 56 0 "},"#":{"ha":572,"x_min":0,"x_max":0,"o":"m 454 656 l 425 371 l 503 371 l 494 293 l 417 293 l 386 0 l 297 0 l 328 293 l 201 293 l 169 0 l 81 0 l 113 293 l 32 293 l 40 371 l 119 371 l 150 656 l 68 656 l 76 733 l 157 733 l 182 972 l 271 972 l 246 733 l 374 733 l 399 972 l 488 972 l 463 733 l 540 733 l 532 656 m 365 656 l 239 656 l 208 371 l 336 371 "},".":{"ha":215,"x_min":0,"x_max":0,"o":"m 160 135 l 160 0 l 56 0 l 56 135 "},"·":{"ha":215,"x_min":0,"x_max":0,"o":"m 160 560 l 160 425 l 56 425 l 56 560 "},"?":{"ha":501,"x_min":0,"x_max":0,"o":"m 253 982 b 469 736 403 982 469 885 b 276 269 469 501 276 456 b 283 217 276 251 279 233 l 186 217 b 179 272 182 233 179 250 b 361 742 179 485 361 517 b 250 885 361 829 329 885 b 139 742 171 885 139 828 l 139 656 l 38 656 l 38 735 b 253 982 38 882 104 982 m 285 135 l 285 0 l 182 0 l 182 135 "},"¿":{"ha":501,"x_min":0,"x_max":0,"o":"m 321 972 l 321 838 l 217 838 l 217 972 m 315 756 b 324 700 321 739 324 722 b 140 231 322 488 140 456 b 251 88 140 143 172 88 b 363 231 331 88 363 144 l 363 317 l 465 317 l 465 238 b 249 -10 465 90 399 -10 b 33 236 99 -10 33 88 b 225 703 33 471 225 517 b 219 756 225 721 224 739 "},"\"":{"ha":368,"x_min":0,"x_max":0,"o":"m 160 972 l 144 710 l 69 710 l 56 972 m 313 972 l 297 710 l 222 710 l 208 972 "},"'":{"ha":210,"x_min":0,"x_max":0,"o":"m 157 972 l 142 710 l 67 710 l 53 972 "},";":{"ha":222,"x_min":0,"x_max":0,"o":"m 167 664 l 167 529 l 63 529 l 63 664 m 103 0 l 63 0 l 63 135 l 167 135 l 167 10 l 113 -122 l 68 -122 "},"/":{"ha":522,"x_min":0,"x_max":0,"o":"m 500 972 l 117 0 l 22 0 l 406 972 "},"_":{"ha":704,"x_min":0,"x_max":0,"o":"m 681 -14 l 681 -93 l 18 -93 l 18 -14 "},"{":{"ha":357,"x_min":0,"x_max":0,"o":"m 297 883 b 218 776 239 883 222 850 l 210 619 b 119 486 207 561 193 506 b 210 353 193 467 207 411 l 218 196 b 297 89 222 122 239 89 l 324 89 l 324 0 l 260 0 b 121 149 172 0 128 54 l 111 338 b 28 440 107 406 96 435 l 28 532 b 111 635 96 538 107 567 l 121 824 b 260 972 128 918 172 972 l 324 972 l 324 883 "},"}":{"ha":357,"x_min":0,"x_max":0,"o":"m 97 972 b 235 824 183 972 229 918 l 246 635 b 328 532 250 567 260 538 l 328 440 b 246 338 260 435 250 406 l 235 149 b 97 0 229 54 183 0 l 33 0 l 33 89 l 60 89 b 139 196 118 89 135 122 l 147 353 b 238 486 150 411 163 467 b 147 619 163 506 150 561 l 139 776 b 60 883 135 850 118 883 l 33 883 l 33 972 "},"[":{"ha":336,"x_min":0,"x_max":0,"o":"m 297 89 l 297 0 l 63 0 l 63 972 l 297 972 l 297 883 l 169 883 l 169 89 "},"]":{"ha":336,"x_min":0,"x_max":0,"o":"m 165 89 l 165 883 l 39 883 l 39 972 l 274 972 l 274 0 l 39 0 l 39 89 "},"(":{"ha":335,"x_min":0,"x_max":0,"o":"m 269 883 b 169 758 194 883 169 843 l 169 214 b 269 89 169 129 193 89 l 301 89 l 301 0 l 263 0 b 63 214 114 0 63 68 l 63 758 b 263 972 63 904 114 972 l 301 972 l 301 883 "},")":{"ha":335,"x_min":0,"x_max":0,"o":"m 72 972 b 272 758 221 972 272 904 l 272 214 b 72 0 272 68 221 0 l 33 0 l 33 89 l 65 89 b 165 214 142 89 165 129 l 165 758 b 65 883 165 843 140 883 l 33 883 l 33 972 "},"—":{"ha":1157,"x_min":0,"x_max":0,"o":"m 18 531 l 1139 531 l 1139 442 l 18 442 "},"–":{"ha":636,"x_min":0,"x_max":0,"o":"m 18 531 l 618 531 l 618 442 l 18 442 "},"‒":{"ha":590,"x_min":0,"x_max":0,"o":"m 18 531 l 572 531 l 572 442 l 18 442 "},"-":{"ha":368,"x_min":0,"x_max":0,"o":"m 51 535 l 317 535 l 317 438 l 51 438 "},"­":{"ha":368,"x_min":0,"x_max":0,"o":"m 51 535 l 317 535 l 317 438 l 51 438 "},"«":{"ha":444,"x_min":0,"x_max":0,"o":"m 33 488 l 121 836 l 219 836 l 132 488 l 219 125 l 121 125 m 225 488 l 314 836 l 411 836 l 324 488 l 411 125 l 314 125 "},"»":{"ha":444,"x_min":0,"x_max":0,"o":"m 121 488 l 33 836 l 131 836 l 219 488 l 131 125 l 33 125 m 313 488 l 225 836 l 322 836 l 411 488 l 322 125 l 225 125 "},"‹":{"ha":254,"x_min":0,"x_max":0,"o":"m 33 488 l 119 844 l 222 844 l 136 488 l 222 115 l 119 115 "},"›":{"ha":254,"x_min":0,"x_max":0,"o":"m 118 488 l 33 844 l 135 844 l 222 488 l 135 117 l 33 117 "},"„":{"ha":381,"x_min":0,"x_max":0,"o":"m 113 -122 l 68 -122 l 103 0 l 63 0 l 63 135 l 167 135 l 167 10 m 272 -122 l 226 -122 l 261 0 l 221 0 l 221 135 l 325 135 l 325 10 "},"“":{"ha":376,"x_min":0,"x_max":0,"o":"m 108 972 l 154 972 l 119 850 l 160 850 l 160 715 l 56 715 l 56 840 m 264 972 l 308 972 l 275 850 l 314 850 l 314 715 l 211 715 l 211 840 "},"”":{"ha":376,"x_min":0,"x_max":0,"o":"m 106 715 l 61 715 l 94 838 l 56 838 l 56 972 l 158 972 l 158 847 m 261 715 l 215 715 l 250 838 l 210 838 l 210 972 l 314 972 l 314 847 "},"‘":{"ha":222,"x_min":0,"x_max":0,"o":"m 108 972 l 154 972 l 119 850 l 160 850 l 160 715 l 56 715 l 56 840 "},"’":{"ha":222,"x_min":0,"x_max":0,"o":"m 113 715 l 68 715 l 103 838 l 63 838 l 63 972 l 167 972 l 167 849 "},"‚":{"ha":222,"x_min":0,"x_max":0,"o":"m 113 -122 l 68 -122 l 103 0 l 63 0 l 63 135 l 167 135 l 167 10 "},"Ă":{"ha":586,"x_min":0,"x_max":0,"o":"m 436 1158 b 290 1018 436 1072 381 1018 b 147 1158 200 1018 149 1072 l 213 1158 b 290 1086 215 1104 247 1086 b 371 1158 335 1086 368 1104 m 165 196 l 128 0 l 28 0 l 214 972 l 371 972 l 557 0 l 449 0 l 411 196 m 179 289 l 396 289 l 286 850 "}," ":{"ha":215,"x_min":0,"x_max":0,"o":""},"€":{"ha":551,"x_min":0,"x_max":0,"o":"m 79 738 b 293 982 79 885 144 982 b 507 738 442 982 507 885 l 507 675 l 406 675 l 406 743 b 296 883 406 829 374 883 b 186 743 218 883 186 829 l 186 593 l 428 593 l 428 538 l 186 538 l 186 442 l 428 442 l 428 385 l 186 385 l 186 229 b 296 89 186 143 218 89 b 406 229 374 89 406 143 l 406 304 l 507 304 l 507 235 b 293 -10 507 89 442 -10 b 79 235 144 -10 79 89 l 79 385 l 18 385 l 18 442 l 79 442 l 79 538 l 18 538 l 18 593 l 79 593 "},"¢":{"ha":538,"x_min":0,"x_max":0,"o":"m 313 918 b 489 681 433 903 489 813 l 489 625 l 388 625 l 388 686 b 274 824 388 774 351 824 b 160 683 194 824 160 771 l 160 289 b 274 150 160 203 194 150 b 388 289 351 150 388 201 l 388 382 l 489 382 l 489 296 b 313 56 489 163 433 71 l 313 -14 l 224 -14 l 224 56 b 51 296 106 72 51 165 l 51 676 b 224 917 51 807 106 900 l 224 986 l 313 986 "},"¤":{"ha":517,"x_min":0,"x_max":0,"o":"m 397 581 b 428 486 417 554 428 521 b 397 390 428 450 417 417 l 469 319 l 425 276 l 354 346 b 258 317 328 328 293 317 b 163 346 222 317 190 328 l 92 276 l 49 319 l 119 390 b 89 486 100 417 89 450 b 119 581 89 521 100 556 l 49 653 l 92 696 l 164 625 b 258 656 190 644 222 656 b 354 625 293 656 326 644 l 425 696 l 469 653 m 258 589 b 156 486 201 589 156 543 b 258 383 156 429 201 383 b 363 486 315 383 363 429 b 258 589 363 543 315 589 "},"$":{"ha":538,"x_min":0,"x_max":0,"o":"m 314 968 b 486 729 432 951 486 860 l 486 703 l 385 703 l 385 736 b 272 875 385 822 350 875 b 161 736 196 875 161 822 b 488 243 161 518 488 517 b 314 3 488 113 432 19 l 314 -71 l 225 -71 l 225 3 b 50 243 104 19 50 111 l 50 303 l 151 303 l 151 236 b 265 99 151 149 188 99 b 379 236 344 99 379 149 b 54 729 379 453 54 456 b 225 968 54 863 108 950 l 225 1046 l 314 1046 "},"£":{"ha":543,"x_min":0,"x_max":0,"o":"m 278 982 b 493 735 426 982 493 882 l 493 657 l 390 657 l 390 740 b 281 883 390 828 360 883 b 169 742 201 883 169 829 b 271 397 169 572 240 511 l 457 397 l 457 313 l 278 313 b 182 99 279 238 253 172 l 489 99 l 489 0 l 46 0 l 46 94 b 181 313 121 125 188 203 l 65 313 l 65 397 l 167 397 b 61 736 132 506 61 568 b 278 982 61 885 128 982 "},"₹":{"ha":539,"x_min":0,"x_max":0,"o":"m 340 888 b 411 746 388 858 408 803 l 496 746 l 496 661 l 411 661 b 182 449 403 532 315 449 l 158 449 l 494 0 l 378 0 l 43 449 l 43 532 l 154 532 b 306 661 257 532 304 576 l 44 661 l 44 746 l 306 746 b 154 888 306 838 254 888 l 44 888 l 44 972 l 496 972 l 496 888 "},"¥":{"ha":575,"x_min":0,"x_max":0,"o":"m 342 322 l 342 240 l 481 240 l 481 185 l 342 185 l 342 0 l 233 0 l 233 185 l 94 185 l 94 240 l 233 240 l 233 322 l 94 322 l 94 379 l 225 379 l 25 972 l 138 972 l 292 497 l 447 972 l 550 972 l 349 379 l 481 379 l 481 322 "},"≈":{"ha":550,"x_min":0,"x_max":0,"o":"m 174 683 b 383 597 253 683 319 596 b 472 675 418 599 438 624 l 525 622 b 382 515 474 543 433 517 b 174 600 306 514 240 601 b 78 524 136 600 114 576 l 25 572 b 174 683 79 653 122 682 m 174 456 b 383 371 253 457 319 369 b 472 447 418 371 438 397 l 525 396 b 382 289 474 317 433 289 b 174 374 306 288 240 374 b 78 297 136 374 114 349 l 25 346 b 174 456 79 426 122 456 "},"~":{"ha":550,"x_min":0,"x_max":0,"o":"m 174 569 b 382 485 253 571 318 483 b 472 561 417 485 438 510 l 525 508 b 382 401 474 429 433 403 b 174 488 304 400 239 488 b 78 410 136 488 114 463 l 25 460 b 174 569 79 540 121 569 "},"÷":{"ha":486,"x_min":0,"x_max":0,"o":"m 294 732 l 294 597 l 190 597 l 190 732 m 444 525 l 444 447 l 42 447 l 42 525 m 294 375 l 294 240 l 190 240 l 190 375 "},"=":{"ha":486,"x_min":0,"x_max":0,"o":"m 435 633 l 435 556 l 51 556 l 51 633 m 435 436 l 435 358 l 51 358 l 51 436 "},">":{"ha":532,"x_min":0,"x_max":0,"o":"m 56 350 l 385 486 l 56 622 l 56 701 l 486 525 l 486 447 l 56 271 "},"∞":{"ha":810,"x_min":0,"x_max":0,"o":"m 581 671 b 764 497 694 671 764 611 b 581 325 764 383 694 325 l 563 325 b 411 401 489 325 435 347 b 256 325 385 344 328 325 l 239 325 b 54 497 125 325 54 383 b 239 671 54 611 125 671 l 256 671 b 411 593 328 671 385 650 b 563 671 435 649 489 671 m 240 596 b 131 497 161 596 131 556 b 240 400 131 439 161 401 l 265 400 b 374 497 339 400 374 436 b 265 596 374 558 339 596 m 551 596 b 444 497 471 596 444 556 b 551 400 444 439 471 401 l 576 400 b 688 497 650 400 688 436 b 576 596 688 558 650 596 "},"<":{"ha":532,"x_min":0,"x_max":0,"o":"m 476 271 l 46 447 l 46 525 l 476 701 l 476 622 l 147 486 l 476 350 "},"¬":{"ha":539,"x_min":0,"x_max":0,"o":"m 42 447 l 42 525 l 497 525 l 497 260 l 419 260 l 419 447 "},"−":{"ha":544,"x_min":0,"x_max":0,"o":"m 503 525 l 503 447 l 42 447 l 42 525 "},"×":{"ha":508,"x_min":0,"x_max":0,"o":"m 401 286 l 254 433 l 107 286 l 54 339 l 200 486 l 54 632 l 107 685 l 254 539 l 401 685 l 454 632 l 307 486 l 454 339 "},"%":{"ha":856,"x_min":0,"x_max":0,"o":"m 189 978 b 328 821 283 978 328 914 l 328 514 b 189 357 328 419 283 357 b 50 514 94 357 50 419 l 50 821 b 189 978 50 914 94 978 m 649 972 l 265 0 l 200 0 l 583 972 m 189 914 b 119 825 139 914 119 878 l 119 508 b 189 421 119 456 139 421 b 258 508 238 421 258 456 l 258 825 b 189 914 258 878 238 914 m 667 614 b 806 458 763 614 806 551 l 806 153 b 667 -4 806 58 763 -4 b 528 153 572 -4 528 58 l 528 458 b 667 614 528 551 572 614 m 667 550 b 597 463 618 550 597 515 l 597 147 b 667 58 597 94 618 58 b 736 147 715 58 736 94 l 736 463 b 667 550 736 515 715 550 "},"‰":{"ha":1204,"x_min":0,"x_max":0,"o":"m 189 978 b 328 821 283 978 328 914 l 328 514 b 189 357 328 419 283 357 b 50 514 94 357 50 419 l 50 821 b 189 978 50 914 94 978 m 649 972 l 265 0 l 200 0 l 583 972 m 189 914 b 119 825 139 914 119 878 l 119 508 b 189 421 119 456 139 421 b 258 508 238 421 258 456 l 258 825 b 189 914 258 878 238 914 m 667 614 b 806 458 763 614 806 551 l 806 153 b 667 -4 806 58 763 -4 b 528 153 572 -4 528 58 l 528 458 b 667 614 528 551 572 614 m 1015 614 b 1154 458 1111 614 1154 551 l 1154 153 b 1015 -4 1154 58 1111 -4 b 876 153 921 -4 876 58 l 876 458 b 1015 614 876 551 921 614 m 667 550 b 597 463 618 550 597 515 l 597 147 b 667 58 597 94 618 58 b 736 147 715 58 736 94 l 736 463 b 667 550 736 515 715 550 m 1015 550 b 947 463 967 550 947 515 l 947 147 b 1015 58 947 94 967 58 b 1085 147 1064 58 1085 94 l 1085 463 b 1015 550 1085 515 1064 550 "},"+":{"ha":544,"x_min":0,"x_max":0,"o":"m 311 447 l 311 251 l 233 251 l 233 447 l 42 447 l 42 525 l 233 525 l 233 718 l 311 718 l 311 525 l 503 525 l 503 447 "},"±":{"ha":544,"x_min":0,"x_max":0,"o":"m 233 329 l 233 467 l 51 467 l 51 544 l 233 544 l 233 718 l 311 718 l 311 544 l 493 544 l 493 467 l 311 467 l 311 329 l 493 329 l 493 251 l 51 251 l 51 329 "},"µ":{"ha":553,"x_min":0,"x_max":0,"o":"m 397 100 b 257 -10 372 33 318 -10 b 163 54 208 -10 176 17 l 163 -128 l 54 -128 l 54 694 l 163 694 l 163 231 b 275 90 163 143 199 90 b 388 231 351 90 388 143 l 388 694 l 496 694 l 496 0 l 397 0 "},"&":{"ha":567,"x_min":0,"x_max":0,"o":"m 289 874 b 164 736 207 874 164 831 l 164 688 b 276 556 164 604 206 558 l 386 556 l 386 664 l 493 664 l 493 556 l 540 556 l 540 458 l 493 458 l 493 124 b 514 0 493 75 494 38 l 404 0 b 386 85 393 24 388 43 b 233 -10 358 22 304 -10 b 57 214 113 -10 57 76 l 57 308 b 172 511 57 404 92 481 b 57 710 93 539 57 613 l 57 732 b 286 972 57 886 132 972 l 443 972 l 443 874 m 285 458 b 164 311 204 456 164 406 l 164 222 b 276 89 164 136 201 89 b 386 200 339 89 383 125 l 386 458 "},"^":{"ha":560,"x_min":0,"x_max":0,"o":"m 125 542 l 38 542 l 240 972 l 319 972 l 522 542 l 435 542 l 279 874 "},"@":{"ha":957,"x_min":0,"x_max":0,"o":"m 543 1021 b 922 621 822 1021 922 850 b 668 188 922 346 797 188 b 558 282 601 188 563 221 b 415 188 531 221 483 186 b 288 400 311 189 275 276 l 303 539 b 475 742 315 665 372 744 b 594 650 538 742 578 708 l 604 736 l 699 736 l 657 338 b 697 278 653 306 663 278 b 839 618 804 278 840 482 b 540 936 839 811 749 936 b 133 394 263 936 133 706 b 485 10 133 154 243 10 b 758 97 582 10 671 29 l 750 1 b 479 -74 665 -57 576 -74 b 40 400 174 -74 40 114 b 543 1021 40 731 199 1021 m 503 647 b 396 529 439 649 404 604 l 383 404 b 463 279 375 332 397 281 b 569 403 526 278 561 328 l 583 536 b 503 647 590 601 564 647 "},"|":{"ha":518,"x_min":0,"x_max":0,"o":"m 308 1033 l 308 -61 l 219 -61 l 219 1033 "},"¦":{"ha":519,"x_min":0,"x_max":0,"o":"m 219 1033 l 308 1033 l 308 569 l 219 569 m 219 403 l 308 403 l 308 -61 l 219 -61 "},"©":{"ha":1031,"x_min":0,"x_max":0,"o":"m 515 978 b 993 486 790 978 993 769 b 515 -6 993 203 790 -6 b 38 486 240 -6 38 203 b 515 978 38 769 240 978 m 515 908 b 108 486 281 908 108 728 b 515 64 108 244 281 64 b 922 486 750 64 922 244 b 515 908 922 728 750 908 m 510 792 b 661 619 613 792 661 724 l 661 578 l 589 578 l 589 625 b 511 721 589 685 565 721 b 433 625 458 721 433 685 l 433 347 b 511 251 433 288 458 251 b 589 347 565 251 589 288 l 589 415 l 661 415 l 661 351 b 510 181 661 249 613 181 b 358 351 406 181 358 249 l 358 619 b 510 792 358 724 406 792 "},"†":{"ha":547,"x_min":0,"x_max":0,"o":"m 318 713 l 507 713 l 507 628 l 318 628 l 318 -90 l 229 -90 l 229 628 l 42 628 l 42 713 l 229 713 l 229 972 l 318 972 "},"‡":{"ha":547,"x_min":0,"x_max":0,"o":"m 318 713 l 507 713 l 507 628 l 318 628 l 318 256 l 507 256 l 507 171 l 318 171 l 318 -90 l 229 -90 l 229 171 l 42 171 l 42 256 l 229 256 l 229 628 l 42 628 l 42 713 l 229 713 l 229 972 l 318 972 "},"°":{"ha":304,"x_min":0,"x_max":0,"o":"m 151 983 b 272 864 218 983 272 931 b 151 744 272 797 218 744 b 32 864 86 744 32 797 b 151 983 32 931 86 983 m 151 932 b 83 864 114 932 83 903 b 151 796 83 826 114 796 b 221 864 189 796 221 826 b 151 932 221 903 189 932 "},"¶":{"ha":550,"x_min":0,"x_max":0,"o":"m 282 893 l 282 -87 l 203 -87 l 204 385 b 26 618 82 388 26 478 l 26 738 b 236 972 26 885 86 972 l 486 972 l 486 -87 l 407 -87 l 407 893 "},"®":{"ha":1031,"x_min":0,"x_max":0,"o":"m 515 978 b 993 486 790 978 993 769 b 515 -6 993 203 790 -6 b 38 486 240 -6 38 203 b 515 978 38 769 240 978 m 515 908 b 108 486 281 908 108 728 b 515 64 108 244 281 64 b 922 486 750 64 922 244 b 515 908 922 728 750 908 m 522 783 b 674 628 628 783 674 729 l 674 614 b 593 474 674 542 650 494 b 674 335 651 454 674 406 l 674 271 b 689 189 674 240 675 213 l 610 189 b 599 271 601 208 599 225 l 599 335 b 497 435 599 413 561 435 l 446 435 l 446 189 l 371 189 l 371 783 m 508 506 b 597 597 565 506 597 528 l 597 619 b 518 714 597 681 576 714 l 446 714 l 446 506 "},"§":{"ha":538,"x_min":0,"x_max":0,"o":"m 269 982 b 483 799 403 982 483 908 l 483 761 l 381 761 l 381 785 b 272 892 381 850 336 892 b 160 793 210 892 160 860 b 485 442 157 651 485 689 b 369 265 485 363 439 300 b 486 86 433 231 488 181 b 269 -97 485 -22 399 -97 b 51 86 135 -97 51 -26 l 51 143 l 154 143 l 154 100 b 267 -7 154 32 203 -7 b 378 90 326 -7 376 26 b 53 440 381 235 51 194 b 174 615 53 521 103 583 b 51 797 108 653 51 700 b 269 982 53 908 136 982 m 265 572 b 156 444 206 563 156 511 b 279 308 154 369 218 336 b 382 439 338 322 382 372 b 265 572 382 508 328 543 "},"™":{"ha":810,"x_min":0,"x_max":0,"o":"m 131 478 l 131 908 l 17 908 l 17 972 l 313 972 l 313 908 l 200 908 l 200 478 m 606 481 l 539 481 l 438 865 l 438 478 l 375 478 l 375 972 l 472 972 l 574 586 l 671 972 l 768 972 l 768 478 l 701 478 l 701 868 "},"℗":{"ha":1031,"x_min":0,"x_max":0,"o":"m 515 978 b 993 486 790 978 993 769 b 515 -6 993 204 790 -6 b 38 486 240 -6 38 204 b 515 978 38 769 240 978 m 515 908 b 108 486 281 908 108 728 b 515 64 108 244 281 64 b 922 486 750 64 922 244 b 515 908 922 728 750 908 m 546 771 b 696 614 653 771 696 714 l 696 550 b 540 393 696 444 649 393 l 469 393 l 469 176 l 394 176 l 394 771 m 536 464 b 621 558 596 464 621 493 l 621 606 b 542 701 621 665 600 701 l 469 701 l 469 464 "},"´":{"ha":310,"x_min":0,"x_max":0,"o":"m 247 1178 l 118 1035 l 43 1035 l 140 1178 "},"˘":{"ha":350,"x_min":0,"x_max":0,"o":"m 321 1158 b 174 1018 319 1072 265 1018 b 31 1158 83 1018 32 1072 l 96 1158 b 174 1086 99 1104 131 1086 b 254 1158 219 1086 251 1104 "},"ˇ":{"ha":347,"x_min":0,"x_max":0,"o":"m 100 1178 l 174 1094 l 247 1178 l 342 1178 l 222 1039 l 126 1039 l 6 1178 "},"¸":{"ha":346,"x_min":0,"x_max":0,"o":"m 199 -54 b 301 -122 261 -54 301 -69 b 171 -207 301 -193 242 -207 b 43 -125 103 -207 43 -187 l 43 -114 l 117 -114 l 117 -124 b 171 -165 117 -154 146 -164 b 226 -119 200 -165 226 -153 b 161 -75 226 -83 197 -75 l 150 -75 l 150 13 l 199 13 "},"ˆ":{"ha":347,"x_min":0,"x_max":0,"o":"m 100 1039 l 6 1039 l 126 1178 l 222 1178 l 342 1039 l 247 1039 l 174 1121 "},"¨":{"ha":304,"x_min":0,"x_max":0,"o":"m 143 1154 l 143 1029 l 49 1029 l 49 1154 m 256 1154 l 256 1029 l 161 1029 l 161 1154 "},"˙":{"ha":275,"x_min":0,"x_max":0,"o":"m 185 1157 l 185 1032 l 90 1032 l 90 1157 "},"`":{"ha":310,"x_min":0,"x_max":0,"o":"m 172 1178 l 268 1035 l 189 1035 l 60 1178 "},"˝":{"ha":336,"x_min":0,"x_max":0,"o":"m 175 1178 l 64 1035 l -6 1035 l 75 1178 m 324 1178 l 213 1035 l 144 1035 l 224 1178 "},"¯":{"ha":349,"x_min":0,"x_max":0,"o":"m 322 1111 l 322 1033 l 28 1033 l 28 1111 "},"˛":{"ha":315,"x_min":0,"x_max":0,"o":"m 201 4 b 146 -96 163 -25 144 -68 b 197 -137 146 -125 171 -137 b 253 -125 224 -137 238 -132 l 253 -182 b 167 -199 225 -194 200 -199 b 63 -121 106 -199 63 -174 b 154 4 61 -75 96 -29 "},"˚":{"ha":325,"x_min":0,"x_max":0,"o":"m 163 1232 b 264 1131 219 1232 264 1188 b 163 1029 264 1074 219 1029 b 60 1131 106 1029 60 1074 b 163 1232 60 1188 106 1232 m 163 1181 b 111 1131 133 1181 111 1160 b 163 1081 111 1101 133 1081 b 213 1131 190 1081 213 1101 b 163 1181 213 1160 190 1181 "},"˜":{"ha":356,"x_min":0,"x_max":0,"o":"m 347 1114 b 249 1033 326 1058 290 1033 b 121 1074 194 1033 164 1075 b 63 1033 96 1074 78 1064 l 8 1069 b 111 1150 32 1126 68 1150 b 239 1110 167 1150 197 1108 b 294 1150 263 1110 279 1121 "},"":{"ha":0,"x_min":0,"x_max":0,"o":"m 142 -246 l 101 -246 l 133 -168 l 99 -168 l 99 -46 l 190 -46 l 190 -158 "},"ʼ":{"ha":222,"x_min":0,"x_max":0,"o":"m 113 715 l 68 715 l 103 838 l 63 838 l 63 972 l 167 972 l 167 849 "},"A":{"ha":586,"x_min":0,"x_max":0,"o":"m 165 196 l 128 0 l 28 0 l 214 972 l 371 972 l 557 0 l 449 0 l 411 196 m 179 289 l 396 289 l 286 850 "},"Á":{"ha":586,"x_min":0,"x_max":0,"o":"m 424 1167 l 296 1024 l 219 1024 l 317 1167 m 165 196 l 128 0 l 28 0 l 214 972 l 371 972 l 557 0 l 449 0 l 411 196 m 179 289 l 396 289 l 286 850 "}}}
